
        <svg xmlns="http://www.w3.org/2000/svg" xmlns:xlink="http://www.w3.org/1999/xlink" version="1.1" width="2822.921066061363" 
        height="3230.442536005009" viewBox="0 0 2822.921066061363 3230.442536005009">
			
			<g transform="scale(11.522126800250462) translate(10, 10)">
				<defs id="SvgjsDefs2583"></defs><g id="SvgjsG2584" featureKey="symbolFeature-0" transform="matrix(0.8858267716535434,0,0,0.8858267716535434,0,21)" fill="#e07034"><defs xmlns="http://www.w3.org/2000/svg"></defs><g xmlns="http://www.w3.org/2000/svg"><path class="fil0" d="M65 156c25,-12 51,-31 45,-41 -3,-4 -13,4 -33,4 -30,0 -45,-28 -48,-48 19,25 31,23 35,23 -15,-4 -43,-26 -34,-65 28,49 72,15 96,69 3,1 7,1 9,0 2,-2 3,-5 -1,-10 -1,1 -3,1 -4,-2 -5,0 0,-5 -5,-4 -3,0 -4,-4 -3,-6 0,-1 -4,-2 -3,-5 2,-3 -6,-3 0,-7 2,-1 -1,-3 -2,-5 0,-1 2,-2 2,-3 1,-3 -1,-1 -1,-6 0,-2 3,-1 1,-5 -4,-4 3,-3 1,-7 -1,-3 5,-2 6,-4 1,-2 0,-5 4,-5 0,-3 5,-3 7,-4 2,0 1,-1 3,-2 2,-1 3,1 5,1 2,-1 2,-3 4,-2 3,0 1,1 4,0 5,-1 5,2 7,2 3,0 5,-3 9,4 3,-2 8,1 6,7 1,0 1,0 1,0 5,0 4,4 4,8 1,6 0,10 0,11 -2,4 4,8 5,9 1,2 -1,4 -2,4 0,0 1,2 2,3 3,2 -3,3 -1,4 1,2 1,3 0,3 -1,1 -3,1 -2,3 0,1 1,8 -4,7 -7,-2 -10,-2 -12,3 -1,2 -1,12 4,15 9,2 21,-7 17,-18 -1,-1 3,-1 5,0 0,-1 1,-1 1,-1 0,-1 0,-1 0,-1 3,-7 1,-8 -2,-8 -1,0 -3,0 -3,-2 0,-1 0,-3 1,-4 1,0 3,0 5,0 1,-3 4,-1 4,-1 1,-3 3,0 3,0 1,-3 3,0 3,0 3,-3 5,2 5,2 14,1 26,-1 31,-8 6,-6 10,-8 11,12 0,20 -6,13 -13,8 -7,-5 -22,-4 -22,-4 -5,0 -11,2 -11,8 2,0 5,1 5,2 0,0 -1,7 -1,9 4,21 -14,47 -35,36 -9,-7 -11,0 -11,4 -5,25 -37,127 -63,131 -20,4 -50,-48 -51,-27 0,19 -11,20 -14,7 -4,-16 13,-29 5,-31 -8,-2 -27,27 -34,18 -7,-7 6,-27 16,-28 9,-1 11,-4 9,-7 -50,-45 -7,-25 34,-46z" style="fill: #e07034;"></path><polygon class="fil1" points="243,18 239,26 231,26 238,32 236,40 243,36 250,40 248,32 254,26 246,26 " style="fill: #e07034;"></polygon><polygon class="fil1" points="198,169 195,177 186,177 193,183 191,191 198,186 205,191 203,182 210,177 201,176 " style="fill: #e07034;"></polygon><polygon class="fil1" points="158,221 154,229 146,229 153,235 151,243 158,239 165,243 163,235 169,229 161,229 " style="fill: #e07034;"></polygon><polygon class="fil1" points="19,113 16,121 8,121 14,127 12,135 20,130 27,135 25,126 31,121 22,121 " style="fill: #e07034;"></polygon><polygon class="fil1" points="71,8 67,16 59,17 66,22 64,30 71,26 78,30 76,22 82,17 74,16 " style="fill: #e07034;"></polygon><circle class="fil1" cx="6" cy="69" r="6" style="fill: #e07034;"></circle><circle class="fil1" cx="231" cy="118" r="8" style="fill: #e07034;"></circle><path class="fil1" d="M149 0c-24,0 -43,4 -43,9 0,5 19,9 43,9 23,0 42,-4 42,-9 0,-5 -19,-9 -42,-9zm0 3c-21,0 -38,2 -38,6 0,3 17,6 38,6 20,0 37,-3 37,-6 0,-4 -17,-6 -37,-6z" style="fill: #e07034;"></path></g></g><g id="SvgjsG2585" featureKey="nameFeature-0" transform="matrix(0.02748158927251869,0,0,0.02748158927251869,107.97581619829516,-0.3979335573369126)" fill="#2d6473"><path d="M19.68 38.44 l0.56 0 c2.12 0 3 -0.92 3 -3.08 l0 -7.12 l-13.2 0 l0 7.2 c0 2.12 0.84 3 3.08 3 l0.6 0 l0 1.56 l-12.84 0 l0 -1.56 l0.68 0 c2.04 0 2.96 -0.92 2.96 -2.92 l0 -15.92 c0 -2 -0.88 -2.92 -3 -2.92 l-0.64 0 l0 -1.56 l12.84 0 l0 1.56 l-0.56 0 c-2.08 0 -3.12 0.68 -3.12 2.92 l0 6.28 l13.2 0 l0 -6.16 c0 -2.24 -0.88 -3.04 -3.2 -3.04 l-0.36 0 l0 -1.56 l12.8 0 l0 1.56 l-0.72 0 c-2.04 0 -3 0.76 -3 2.92 l0 15.84 c0 2.08 0.76 3 3.08 3 l0.64 0 l0 1.56 l-12.8 0 l0 -1.56 z M55.04 20.92 c-0.4 -2.72 -0.92 -3.6 -2.76 -3.6 l-8.76 0 l0 9 l6.48 0 c2.2 0 3 -0.76 3 -2.88 l1.6 0 l0 7.96 l-1.6 0 c0 -2.16 -0.52 -2.88 -3.6 -2.88 l-5.88 0 l0 7.2 c0 1.72 0.32 2.08 1.48 2.08 l6.68 0 c2.6 0 3.84 -0.72 4.6 -4.08 l1.52 0 l-0.48 6.28 l-24.08 0 l0 -1.56 l1.64 0 c2.32 0 3.12 -0.92 3.12 -2.88 l0 -15.96 c0 -2.16 -0.72 -2.92 -3.48 -2.92 l-0.4 0 l0 -1.56 l22.04 0 l0.4 5.8 l-1.52 0 z M84.03999999999999 33.04 l-2.92 6.96 l-21.44 0 l0 -1.56 l0.68 0 c2.56 0 3.32 -0.92 3.32 -2.88 l0 -16 c0 -2.36 -1.36 -2.88 -3.16 -2.88 l-0.76 0 l0 -1.56 l13.56 0 l0 1.56 l-1.16 0 c-2.08 0 -2.96 0.92 -2.96 2.8 l0 16.48 c0 1.48 0.44 1.84 2 1.84 l5.08 0 c2.68 0 3.48 -1.32 6.16 -4.76 l1.6 0 z M93.39999999999999 29.52 l0 5.92 c0 2.32 0.88 3 3.48 3 l1.2 0 l0 1.56 l-13.6 0 l0 -1.56 l0.6 0 c2.2 0 2.8 -0.48 2.8 -2.28 l0 -17.16 c0 -1.84 -0.6 -2.32 -2.8 -2.32 l-0.88 0 l0 -1.56 c1.56 -0.08 3.72 -0.32 6.48 -0.44 c2.64 -0.12 5.24 -0.2 6.36 -0.2 c7.72 0 11 3.72 11 7.84 c0 4.64 -3.92 7.6 -10.08 7.6 c-1.44 0 -2.88 -0.12 -4.56 -0.4 z M93.39999999999999 16.52 l0 11.36 c0.84 0.2 1.72 0.28 2.88 0.28 c3.72 0 5.8 -2.16 5.8 -6.08 c0 -3.68 -2.16 -5.84 -5.84 -5.84 c-0.96 0 -1.88 0.08 -2.84 0.28 z M110.08 16.68 l0 -1.56 l12.72 0 l0 1.56 l-0.68 0 c-2.16 0 -3.04 0.92 -3.04 3 l0 15.84 c0 1.96 0.68 2.92 3.12 2.92 l0.6 0 l0 1.56 l-12.72 0 l0 -1.56 l0.56 0 c2.12 0 2.92 -1 2.92 -2.76 l0 -16 c0 -2.08 -0.72 -3 -2.96 -3 l-0.52 0 z M130.44 20.08 l0 15.12 c0 2.44 0.76 3.24 3.96 3.24 l0 1.56 l-9.68 0 l0 -1.56 l0.24 0 c2.44 0 3.04 -0.88 3.04 -2.52 l0 -18.36 c-0.88 -0.6 -1.96 -0.88 -3.2 -0.88 l0 -1.56 l8.24 0 l16.32 17.04 l0 -12.08 c0 -2.88 -0.6 -3.4 -3.8 -3.4 l-0.4 0 l0 -1.56 l10.32 0 l0 1.56 l-0.4 0 c-2.48 0 -3.28 0.52 -3.28 2.04 l0 21.4 l-2.2 0 z M186.6 28.04 l0 1.52 c-2.12 0.04 -2.84 0.68 -2.84 2.52 l0 5.96 c-2.88 1.32 -7 2.52 -10.44 2.52 c-10.12 0 -15 -5.64 -15 -13.32 c0 -7.32 6.04 -12.72 14.56 -12.72 c4.12 0 7.32 1.4 8.68 1.4 c0.6 0 0.92 -0.16 1.2 -0.52 l1 0 l0 7.32 l-1.6 0 c-1.08 -4.08 -4.12 -6.48 -8.28 -6.48 c-5.68 0 -9.6 4.48 -9.6 10.96 c0 6.56 4.12 11.44 9.68 11.44 c1.52 0 3.2 -0.4 4.28 -1.04 l0 -5.52 c0 -2 -0.84 -2.44 -4.92 -2.52 l0 -1.52 l13.28 0 z M218.56 30.759999999999998 l-8.76 0 l-1.68 4.68 c-0.72 2.04 -0.68 3 3.16 3 l0.52 0 l0 1.56 l-10.6 0 l0 -1.56 l0.6 0 c1.92 0 2.92 -0.88 3.92 -3.68 l6.84 -19.08 l-0.44 -1.16 l5.92 0 l8 20.32 c1.04 2.64 1.92 3.44 4 3.6 l0 1.56 l-13 0 l0 -1.56 l1.4 0 c2.44 0 2.8 -1.08 2 -3.04 z M217.64000000000001 28.560000000000002 l-3.68 -9.36 l-3.36 9.36 l7.04 0 z M237.12 20.08 l0 15.12 c0 2.44 0.76 3.24 3.96 3.24 l0 1.56 l-9.68 0 l0 -1.56 l0.24 0 c2.44 0 3.04 -0.88 3.04 -2.52 l0 -18.36 c-0.88 -0.6 -1.96 -0.88 -3.2 -0.88 l0 -1.56 l8.24 0 l16.32 17.04 l0 -12.08 c0 -2.88 -0.6 -3.4 -3.8 -3.4 l-0.4 0 l0 -1.56 l10.32 0 l0 1.56 l-0.4 0 c-2.48 0 -3.28 0.52 -3.28 2.04 l0 21.4 l-2.2 0 z M293.28 28.04 l0 1.52 c-2.12 0.04 -2.84 0.68 -2.84 2.52 l0 5.96 c-2.88 1.32 -7 2.52 -10.44 2.52 c-10.12 0 -15 -5.64 -15 -13.32 c0 -7.32 6.04 -12.72 14.56 -12.72 c4.12 0 7.32 1.4 8.68 1.4 c0.6 0 0.92 -0.16 1.2 -0.52 l1 0 l0 7.32 l-1.6 0 c-1.08 -4.08 -4.12 -6.48 -8.28 -6.48 c-5.68 0 -9.6 4.48 -9.6 10.96 c0 6.56 4.12 11.44 9.68 11.44 c1.52 0 3.2 -0.4 4.28 -1.04 l0 -5.52 c0 -2 -0.84 -2.44 -4.92 -2.52 l0 -1.52 l13.28 0 z M315.91999999999996 20.92 c-0.4 -2.72 -0.92 -3.6 -2.76 -3.6 l-8.76 0 l0 9 l6.48 0 c2.2 0 3 -0.76 3 -2.88 l1.6 0 l0 7.96 l-1.6 0 c0 -2.16 -0.52 -2.88 -3.6 -2.88 l-5.88 0 l0 7.2 c0 1.72 0.32 2.08 1.48 2.08 l6.68 0 c2.6 0 3.84 -0.72 4.6 -4.08 l1.52 0 l-0.48 6.28 l-24.08 0 l0 -1.56 l1.64 0 c2.32 0 3.12 -0.92 3.12 -2.88 l0 -15.96 c0 -2.16 -0.72 -2.92 -3.48 -2.92 l-0.4 0 l0 -1.56 l22.04 0 l0.4 5.8 l-1.52 0 z M344.91999999999996 33.04 l-2.92 6.96 l-21.44 0 l0 -1.56 l0.68 0 c2.56 0 3.32 -0.92 3.32 -2.88 l0 -16 c0 -2.36 -1.36 -2.88 -3.16 -2.88 l-0.76 0 l0 -1.56 l13.56 0 l0 1.56 l-1.16 0 c-2.08 0 -2.96 0.92 -2.96 2.8 l0 16.48 c0 1.48 0.44 1.84 2 1.84 l5.08 0 c2.68 0 3.48 -1.32 6.16 -4.76 l1.6 0 z M347.52 39.92 l-1 -7.28 l1.56 0 c1.32 3.96 3.68 6 6.84 6 c2.64 0 4.64 -1.68 4.64 -3.92 c0 -5.96 -12.84 -5.76 -12.84 -13.68 c0 -3.84 3.36 -6.52 8.12 -6.52 c3.08 0 5.48 1.04 6.08 1.04 c0.28 0 0.52 -0.08 0.88 -0.44 l0.84 0 l0.76 6.48 l-1.6 0 c-0.88 -3.24 -3.44 -5.36 -6.52 -5.36 c-2.24 0 -3.92 1.2 -3.92 2.76 c0 3.68 6.64 4.36 11.12 8.84 c1.64 1.64 2.28 3.36 2.28 5.28 c0 4.16 -3.76 7.44 -8.52 7.44 c-3.2 0 -6.12 -1.28 -6.84 -1.28 c-0.36 0 -0.64 0.2 -0.84 0.64 l-1.04 0 z"></path></g>
			</g>
		</svg>
	