<svg xmlns="http://www.w3.org/2000/svg" version="1.1" xmlns:xlink="http://www.w3.org/1999/xlink" xmlns:svgjs="http://svgjs.com/svgjs" width="1280" height="560" preserveAspectRatio="none" viewBox="0 0 1280 560"><g mask="url(&quot;#SvgjsMask1355&quot;)" fill="none"><path d="M 0,446 C 28.6,406 85.8,253.2 143,246 C 200.2,238.8 228.8,444.8 286,410 C 343.2,375.2 371.8,71.2 429,72 C 486.2,72.8 514.8,386.4 572,414 C 629.2,441.6 657.8,233.8 715,210 C 772.2,186.2 800.8,299.2 858,295 C 915.2,290.8 943.8,160.4 1001,189 C 1058.2,217.6 1088.2,464.8 1144,438 C 1199.8,411.2 1252.8,131.6 1280,55L1280 560L0 560z" fill="rgba(129, 216, 250, 1)"></path></g><defs><mask id="SvgjsMask1355"><rect width="1280" height="560" fill="#ffffff"></rect></mask></defs></svg>