<svg xmlns="http://www.w3.org/2000/svg" version="1.1" xmlns:xlink="http://www.w3.org/1999/xlink" xmlns:svgjs="http://svgjs.com/svgjs" width="1980" height="560" preserveAspectRatio="none" viewBox="0 0 1980 560"><g mask="url(&quot;#SvgjsMask1301&quot;)" fill="none"><path d="M105.39 39.1L161.69 71.6L161.69 136.6L105.39 169.1L49.1 136.6L49.1 71.6zM49.1 136.6L105.39 169.1L105.39 234.1L49.1 266.6L-7.19 234.1L-7.19 169.1zM217.98 39.1L274.27 71.6L274.27 136.6L217.98 169.1L161.69 136.6L161.69 71.6zM161.69 136.6L217.98 169.1L217.98 234.1L161.69 266.6L105.39 234.1L105.39 169.1zM217.98 429.1L274.27 461.6L274.27 526.6L217.98 559.1L161.69 526.6L161.69 461.6zM274.27 -58.4L330.57 -25.9L330.57 39.1L274.27 71.6L217.98 39.1L217.98 -25.9zM330.57 39.1L386.86 71.6L386.86 136.6L330.57 169.1L274.27 136.6L274.27 71.6zM274.27 331.6L330.57 364.1L330.57 429.1L274.27 461.6L217.98 429.1L217.98 364.1zM330.57 429.1L386.86 461.6L386.86 526.6L330.57 559.1L274.27 526.6L274.27 461.6zM386.86 -58.4L443.15 -25.9L443.15 39.1L386.86 71.6L330.57 39.1L330.57 -25.9zM386.86 136.6L443.15 169.1L443.15 234.1L386.86 266.6L330.57 234.1L330.57 169.1zM386.86 331.6L443.15 364.1L443.15 429.1L386.86 461.6L330.57 429.1L330.57 364.1zM555.74 234.1L612.03 266.6L612.03 331.6L555.74 364.1L499.45 331.6L499.45 266.6zM668.33 39.1L724.62 71.6L724.62 136.6L668.33 169.1L612.03 136.6L612.03 71.6zM612.03 136.6L668.33 169.1L668.33 234.1L612.03 266.6L555.74 234.1L555.74 169.1zM668.33 234.1L724.62 266.6L724.62 331.6L668.33 364.1L612.03 331.6L612.03 266.6zM612.03 526.6L668.33 559.1L668.33 624.1L612.03 656.6L555.74 624.1L555.74 559.1zM724.62 -58.4L780.91 -25.9L780.91 39.1L724.62 71.6L668.33 39.1L668.33 -25.9zM780.91 39.1L837.21 71.6L837.21 136.6L780.91 169.1L724.62 136.6L724.62 71.6zM893.5 39.1L949.79 71.6L949.79 136.6L893.5 169.1L837.21 136.6L837.21 71.6zM893.5 234.1L949.79 266.6L949.79 331.6L893.5 364.1L837.21 331.6L837.21 266.6zM949.79 -58.4L1006.09 -25.9L1006.09 39.1L949.79 71.6L893.5 39.1L893.5 -25.9zM1231.26 39.1L1287.55 71.6L1287.55 136.6L1231.26 169.1L1174.96 136.6L1174.96 71.6zM1174.96 136.6L1231.26 169.1L1231.26 234.1L1174.96 266.6L1118.67 234.1L1118.67 169.1zM1231.26 234.1L1287.55 266.6L1287.55 331.6L1231.26 364.1L1174.96 331.6L1174.96 266.6zM1174.96 526.6L1231.26 559.1L1231.26 624.1L1174.96 656.6L1118.67 624.1L1118.67 559.1zM1287.55 136.6L1343.84 169.1L1343.84 234.1L1287.55 266.6L1231.26 234.1L1231.26 169.1zM1343.84 234.1L1400.14 266.6L1400.14 331.6L1343.84 364.1L1287.55 331.6L1287.55 266.6zM1400.14 136.6L1456.43 169.1L1456.43 234.1L1400.14 266.6L1343.84 234.1L1343.84 169.1zM1456.43 429.1L1512.72 461.6L1512.72 526.6L1456.43 559.1L1400.14 526.6L1400.14 461.6zM1625.31 -58.4L1681.6 -25.9L1681.6 39.1L1625.31 71.6L1569.02 39.1L1569.02 -25.9zM1625.31 331.6L1681.6 364.1L1681.6 429.1L1625.31 461.6L1569.02 429.1L1569.02 364.1zM1681.6 429.1L1737.9 461.6L1737.9 526.6L1681.6 559.1L1625.31 526.6L1625.31 461.6zM1737.9 136.6L1794.19 169.1L1794.19 234.1L1737.9 266.6L1681.6 234.1L1681.6 169.1zM2019.36 429.1L2075.66 461.6L2075.66 526.6L2019.36 559.1L1963.07 526.6L1963.07 461.6z" stroke="rgba(249, 159, 101, 1)" stroke-width="2"></path><path d="M76.86 40.68L128.83 70.68L128.83 130.68L76.86 160.68L24.9 130.68L24.9 70.68zM24.9 130.68L76.86 160.68L76.86 220.68L24.9 250.68L-27.06 220.68L-27.06 160.68zM76.86 400.68L128.83 430.68L128.83 490.68L76.86 520.68L24.9 490.68L24.9 430.68zM24.9 490.68L76.86 520.68L76.86 580.68L24.9 610.68L-27.06 580.68L-27.06 520.68zM180.79 400.68L232.75 430.68L232.75 490.68L180.79 520.68L128.83 490.68L128.83 430.68zM128.83 490.68L180.79 520.68L180.79 580.68L128.83 610.68L76.86 580.68L76.86 520.68zM232.75 -49.32L284.71 -19.32L284.71 40.68L232.75 70.68L180.79 40.68L180.79 -19.32zM284.71 40.68L336.68 70.68L336.68 130.68L284.71 160.68L232.75 130.68L232.75 70.68zM284.71 220.68L336.68 250.68L336.68 310.68L284.71 340.68L232.75 310.68L232.75 250.68zM232.75 310.68L284.71 340.68L284.71 400.68L232.75 430.68L180.79 400.68L180.79 340.68zM284.71 400.68L336.68 430.68L336.68 490.68L284.71 520.68L232.75 490.68L232.75 430.68zM336.68 -49.32L388.64 -19.32L388.64 40.68L336.68 70.68L284.71 40.68L284.71 -19.32zM388.64 40.68L440.6 70.68L440.6 130.68L388.64 160.68L336.68 130.68L336.68 70.68zM336.68 310.68L388.64 340.68L388.64 400.68L336.68 430.68L284.71 400.68L284.71 340.68zM492.57 220.68L544.53 250.68L544.53 310.68L492.57 340.68L440.6 310.68L440.6 250.68zM440.6 490.68L492.57 520.68L492.57 580.68L440.6 610.68L388.64 580.68L388.64 520.68zM544.53 130.68L596.49 160.68L596.49 220.68L544.53 250.68L492.57 220.68L492.57 160.68zM596.49 220.68L648.46 250.68L648.46 310.68L596.49 340.68L544.53 310.68L544.53 250.68zM544.53 310.68L596.49 340.68L596.49 400.68L544.53 430.68L492.57 400.68L492.57 340.68zM596.49 400.68L648.46 430.68L648.46 490.68L596.49 520.68L544.53 490.68L544.53 430.68zM700.42 40.68L752.38 70.68L752.38 130.68L700.42 160.68L648.46 130.68L648.46 70.68zM648.46 310.68L700.42 340.68L700.42 400.68L648.46 430.68L596.49 400.68L596.49 340.68zM700.42 400.68L752.38 430.68L752.38 490.68L700.42 520.68L648.46 490.68L648.46 430.68zM648.46 490.68L700.42 520.68L700.42 580.68L648.46 610.68L596.49 580.68L596.49 520.68zM752.38 -49.32L804.34 -19.32L804.34 40.68L752.38 70.68L700.42 40.68L700.42 -19.32zM804.34 220.68L856.31 250.68L856.31 310.68L804.34 340.68L752.38 310.68L752.38 250.68zM804.34 400.68L856.31 430.68L856.31 490.68L804.34 520.68L752.38 490.68L752.38 430.68zM908.27 220.68L960.23 250.68L960.23 310.68L908.27 340.68L856.31 310.68L856.31 250.68zM856.31 310.68L908.27 340.68L908.27 400.68L856.31 430.68L804.35 400.68L804.35 340.68zM960.23 -49.32L1012.2 -19.32L1012.2 40.68L960.23 70.68L908.27 40.68L908.27 -19.32zM1012.2 40.68L1064.16 70.68L1064.16 130.68L1012.2 160.68L960.23 130.68L960.23 70.68zM960.23 310.68L1012.2 340.68L1012.2 400.68L960.23 430.68L908.27 400.68L908.27 340.68zM1012.2 400.68L1064.16 430.68L1064.16 490.68L1012.2 520.68L960.23 490.68L960.23 430.68zM1116.12 220.68L1168.09 250.68L1168.09 310.68L1116.12 340.68L1064.16 310.68L1064.16 250.68zM1116.12 400.68L1168.09 430.68L1168.09 490.68L1116.12 520.68L1064.16 490.68L1064.16 430.68zM1064.16 490.68L1116.12 520.68L1116.12 580.68L1064.16 610.68L1012.2 580.68L1012.2 520.68zM1168.09 -49.32L1220.05 -19.32L1220.05 40.68L1168.09 70.68L1116.12 40.68L1116.12 -19.32zM1323.98 40.68L1375.94 70.68L1375.94 130.68L1323.98 160.68L1272.01 130.68L1272.01 70.68zM1323.98 220.68L1375.94 250.68L1375.94 310.68L1323.98 340.68L1272.01 310.68L1272.01 250.68zM1323.98 400.68L1375.94 430.68L1375.94 490.68L1323.98 520.68L1272.01 490.68L1272.01 430.68zM1375.94 -49.32L1427.9 -19.32L1427.9 40.68L1375.94 70.68L1323.98 40.68L1323.98 -19.32zM1427.9 40.68L1479.86 70.68L1479.86 130.68L1427.9 160.68L1375.94 130.68L1375.94 70.68zM1375.94 130.68L1427.9 160.68L1427.9 220.68L1375.94 250.68L1323.98 220.68L1323.98 160.68zM1375.94 310.68L1427.9 340.68L1427.9 400.68L1375.94 430.68L1323.98 400.68L1323.98 340.68zM1427.9 400.68L1479.86 430.68L1479.86 490.68L1427.9 520.68L1375.94 490.68L1375.94 430.68zM1375.94 490.68L1427.9 520.68L1427.9 580.68L1375.94 610.68L1323.98 580.68L1323.98 520.68zM1479.86 -49.32L1531.83 -19.32L1531.83 40.68L1479.86 70.68L1427.9 40.68L1427.9 -19.32zM1531.83 40.68L1583.79 70.68L1583.79 130.68L1531.83 160.68L1479.86 130.68L1479.86 70.68zM1479.86 130.68L1531.83 160.68L1531.83 220.68L1479.86 250.68L1427.9 220.68L1427.9 160.68zM1479.86 310.68L1531.83 340.68L1531.83 400.68L1479.86 430.68L1427.9 400.68L1427.9 340.68zM1531.83 400.68L1583.79 430.68L1583.79 490.68L1531.83 520.68L1479.86 490.68L1479.86 430.68zM1583.79 310.68L1635.75 340.68L1635.75 400.68L1583.79 430.68L1531.83 400.68L1531.83 340.68zM1635.75 400.68L1687.72 430.68L1687.72 490.68L1635.75 520.68L1583.79 490.68L1583.79 430.68zM1739.68 40.68L1791.64 70.68L1791.64 130.68L1739.68 160.68L1687.72 130.68L1687.72 70.68zM1687.72 130.68L1739.68 160.68L1739.68 220.68L1687.72 250.68L1635.75 220.68L1635.75 160.68zM1739.68 220.68L1791.64 250.68L1791.64 310.68L1739.68 340.68L1687.72 310.68L1687.72 250.68zM1687.72 310.68L1739.68 340.68L1739.68 400.68L1687.72 430.68L1635.75 400.68L1635.75 340.68zM1739.68 400.68L1791.64 430.68L1791.64 490.68L1739.68 520.68L1687.72 490.68L1687.72 430.68zM1791.64 130.68L1843.61 160.68L1843.61 220.68L1791.64 250.68L1739.68 220.68L1739.68 160.68zM1843.61 220.68L1895.57 250.68L1895.57 310.68L1843.61 340.68L1791.64 310.68L1791.64 250.68zM1791.64 490.68L1843.61 520.68L1843.61 580.68L1791.64 610.68L1739.68 580.68L1739.68 520.68zM1895.57 -49.32L1947.53 -19.32L1947.53 40.68L1895.57 70.68L1843.61 40.68L1843.61 -19.32zM1947.53 40.68L1999.49 70.68L1999.49 130.68L1947.53 160.68L1895.57 130.68L1895.57 70.68zM1895.57 310.68L1947.53 340.68L1947.53 400.68L1895.57 430.68L1843.61 400.68L1843.61 340.68zM1947.53 400.68L1999.49 430.68L1999.49 490.68L1947.53 520.68L1895.57 490.68L1895.57 430.68zM1999.49 130.68L2051.46 160.68L2051.46 220.68L1999.49 250.68L1947.53 220.68L1947.53 160.68zM2051.46 220.68L2103.42 250.68L2103.42 310.68L2051.46 340.68L1999.49 310.68L1999.49 250.68zM1999.49 310.68L2051.46 340.68L2051.46 400.68L1999.49 430.68L1947.53 400.68L1947.53 340.68zM2051.46 400.68L2103.42 430.68L2103.42 490.68L2051.46 520.68L1999.49 490.68L1999.49 430.68zM1999.49 490.68L2051.46 520.68L2051.46 580.68L1999.49 610.68L1947.53 580.68L1947.53 520.68z" stroke="rgba(37, 169, 227, 1)" stroke-width="2"></path><path d="M70.86 40.68 a6 6 0 1 0 12 0 a6 6 0 1 0 -12 0zM122.83 70.68 a6 6 0 1 0 12 0 a6 6 0 1 0 -12 0zM122.83 130.68 a6 6 0 1 0 12 0 a6 6 0 1 0 -12 0zM70.86 160.68 a6 6 0 1 0 12 0 a6 6 0 1 0 -12 0zM18.9 130.68 a6 6 0 1 0 12 0 a6 6 0 1 0 -12 0zM18.9 70.68 a6 6 0 1 0 12 0 a6 6 0 1 0 -12 0zM70.86 220.68 a6 6 0 1 0 12 0 a6 6 0 1 0 -12 0zM18.9 250.68 a6 6 0 1 0 12 0 a6 6 0 1 0 -12 0zM-33.06 220.68 a6 6 0 1 0 12 0 a6 6 0 1 0 -12 0zM-33.06 160.68 a6 6 0 1 0 12 0 a6 6 0 1 0 -12 0zM70.86 400.68 a6 6 0 1 0 12 0 a6 6 0 1 0 -12 0zM122.83 430.68 a6 6 0 1 0 12 0 a6 6 0 1 0 -12 0zM122.83 490.68 a6 6 0 1 0 12 0 a6 6 0 1 0 -12 0zM70.86 520.68 a6 6 0 1 0 12 0 a6 6 0 1 0 -12 0zM18.9 490.68 a6 6 0 1 0 12 0 a6 6 0 1 0 -12 0zM18.9 430.68 a6 6 0 1 0 12 0 a6 6 0 1 0 -12 0zM70.86 580.68 a6 6 0 1 0 12 0 a6 6 0 1 0 -12 0zM18.9 610.68 a6 6 0 1 0 12 0 a6 6 0 1 0 -12 0zM-33.06 580.68 a6 6 0 1 0 12 0 a6 6 0 1 0 -12 0zM-33.06 520.68 a6 6 0 1 0 12 0 a6 6 0 1 0 -12 0zM174.79 400.68 a6 6 0 1 0 12 0 a6 6 0 1 0 -12 0zM226.75 430.68 a6 6 0 1 0 12 0 a6 6 0 1 0 -12 0zM226.75 490.68 a6 6 0 1 0 12 0 a6 6 0 1 0 -12 0zM174.79 520.68 a6 6 0 1 0 12 0 a6 6 0 1 0 -12 0zM174.79 580.68 a6 6 0 1 0 12 0 a6 6 0 1 0 -12 0zM122.83 610.68 a6 6 0 1 0 12 0 a6 6 0 1 0 -12 0zM226.75 -49.32 a6 6 0 1 0 12 0 a6 6 0 1 0 -12 0zM278.71 -19.32 a6 6 0 1 0 12 0 a6 6 0 1 0 -12 0zM278.71 40.68 a6 6 0 1 0 12 0 a6 6 0 1 0 -12 0zM226.75 70.68 a6 6 0 1 0 12 0 a6 6 0 1 0 -12 0zM174.79 40.68 a6 6 0 1 0 12 0 a6 6 0 1 0 -12 0zM174.79 -19.32 a6 6 0 1 0 12 0 a6 6 0 1 0 -12 0zM330.68 70.68 a6 6 0 1 0 12 0 a6 6 0 1 0 -12 0zM330.68 130.68 a6 6 0 1 0 12 0 a6 6 0 1 0 -12 0zM278.71 160.68 a6 6 0 1 0 12 0 a6 6 0 1 0 -12 0zM226.75 130.68 a6 6 0 1 0 12 0 a6 6 0 1 0 -12 0zM278.71 220.68 a6 6 0 1 0 12 0 a6 6 0 1 0 -12 0zM330.68 250.68 a6 6 0 1 0 12 0 a6 6 0 1 0 -12 0zM330.68 310.68 a6 6 0 1 0 12 0 a6 6 0 1 0 -12 0zM278.71 340.68 a6 6 0 1 0 12 0 a6 6 0 1 0 -12 0zM226.75 310.68 a6 6 0 1 0 12 0 a6 6 0 1 0 -12 0zM226.75 250.68 a6 6 0 1 0 12 0 a6 6 0 1 0 -12 0zM278.71 400.68 a6 6 0 1 0 12 0 a6 6 0 1 0 -12 0zM174.79 340.68 a6 6 0 1 0 12 0 a6 6 0 1 0 -12 0zM330.68 430.68 a6 6 0 1 0 12 0 a6 6 0 1 0 -12 0zM330.68 490.68 a6 6 0 1 0 12 0 a6 6 0 1 0 -12 0zM278.71 520.68 a6 6 0 1 0 12 0 a6 6 0 1 0 -12 0zM330.68 -49.32 a6 6 0 1 0 12 0 a6 6 0 1 0 -12 0zM382.64 -19.32 a6 6 0 1 0 12 0 a6 6 0 1 0 -12 0zM382.64 40.68 a6 6 0 1 0 12 0 a6 6 0 1 0 -12 0zM434.6 70.68 a6 6 0 1 0 12 0 a6 6 0 1 0 -12 0zM434.6 130.68 a6 6 0 1 0 12 0 a6 6 0 1 0 -12 0zM382.64 160.68 a6 6 0 1 0 12 0 a6 6 0 1 0 -12 0zM382.64 340.68 a6 6 0 1 0 12 0 a6 6 0 1 0 -12 0zM382.64 400.68 a6 6 0 1 0 12 0 a6 6 0 1 0 -12 0zM486.57 220.68 a6 6 0 1 0 12 0 a6 6 0 1 0 -12 0zM538.53 250.68 a6 6 0 1 0 12 0 a6 6 0 1 0 -12 0zM538.53 310.68 a6 6 0 1 0 12 0 a6 6 0 1 0 -12 0zM486.57 340.68 a6 6 0 1 0 12 0 a6 6 0 1 0 -12 0zM434.6 310.68 a6 6 0 1 0 12 0 a6 6 0 1 0 -12 0zM434.6 250.68 a6 6 0 1 0 12 0 a6 6 0 1 0 -12 0zM434.6 490.68 a6 6 0 1 0 12 0 a6 6 0 1 0 -12 0zM486.57 520.68 a6 6 0 1 0 12 0 a6 6 0 1 0 -12 0zM486.57 580.68 a6 6 0 1 0 12 0 a6 6 0 1 0 -12 0zM434.6 610.68 a6 6 0 1 0 12 0 a6 6 0 1 0 -12 0zM382.64 580.68 a6 6 0 1 0 12 0 a6 6 0 1 0 -12 0zM382.64 520.68 a6 6 0 1 0 12 0 a6 6 0 1 0 -12 0zM538.53 130.68 a6 6 0 1 0 12 0 a6 6 0 1 0 -12 0zM590.49 160.68 a6 6 0 1 0 12 0 a6 6 0 1 0 -12 0zM590.49 220.68 a6 6 0 1 0 12 0 a6 6 0 1 0 -12 0zM486.57 160.68 a6 6 0 1 0 12 0 a6 6 0 1 0 -12 0zM642.46 250.68 a6 6 0 1 0 12 0 a6 6 0 1 0 -12 0zM642.46 310.68 a6 6 0 1 0 12 0 a6 6 0 1 0 -12 0zM590.49 340.68 a6 6 0 1 0 12 0 a6 6 0 1 0 -12 0zM590.49 400.68 a6 6 0 1 0 12 0 a6 6 0 1 0 -12 0zM538.53 430.68 a6 6 0 1 0 12 0 a6 6 0 1 0 -12 0zM486.57 400.68 a6 6 0 1 0 12 0 a6 6 0 1 0 -12 0zM642.46 430.68 a6 6 0 1 0 12 0 a6 6 0 1 0 -12 0zM642.46 490.68 a6 6 0 1 0 12 0 a6 6 0 1 0 -12 0zM590.49 520.68 a6 6 0 1 0 12 0 a6 6 0 1 0 -12 0zM538.53 490.68 a6 6 0 1 0 12 0 a6 6 0 1 0 -12 0zM694.42 40.68 a6 6 0 1 0 12 0 a6 6 0 1 0 -12 0zM746.38 70.68 a6 6 0 1 0 12 0 a6 6 0 1 0 -12 0zM746.38 130.68 a6 6 0 1 0 12 0 a6 6 0 1 0 -12 0zM694.42 160.68 a6 6 0 1 0 12 0 a6 6 0 1 0 -12 0zM642.46 130.68 a6 6 0 1 0 12 0 a6 6 0 1 0 -12 0zM642.46 70.68 a6 6 0 1 0 12 0 a6 6 0 1 0 -12 0zM694.42 340.68 a6 6 0 1 0 12 0 a6 6 0 1 0 -12 0zM694.42 400.68 a6 6 0 1 0 12 0 a6 6 0 1 0 -12 0zM746.38 430.68 a6 6 0 1 0 12 0 a6 6 0 1 0 -12 0zM746.38 490.68 a6 6 0 1 0 12 0 a6 6 0 1 0 -12 0zM694.42 520.68 a6 6 0 1 0 12 0 a6 6 0 1 0 -12 0zM694.42 580.68 a6 6 0 1 0 12 0 a6 6 0 1 0 -12 0zM642.46 610.68 a6 6 0 1 0 12 0 a6 6 0 1 0 -12 0zM590.49 580.68 a6 6 0 1 0 12 0 a6 6 0 1 0 -12 0zM746.38 -49.32 a6 6 0 1 0 12 0 a6 6 0 1 0 -12 0zM798.34 -19.32 a6 6 0 1 0 12 0 a6 6 0 1 0 -12 0zM798.34 40.68 a6 6 0 1 0 12 0 a6 6 0 1 0 -12 0zM694.42 -19.32 a6 6 0 1 0 12 0 a6 6 0 1 0 -12 0zM798.34 220.68 a6 6 0 1 0 12 0 a6 6 0 1 0 -12 0zM850.31 250.68 a6 6 0 1 0 12 0 a6 6 0 1 0 -12 0zM850.31 310.68 a6 6 0 1 0 12 0 a6 6 0 1 0 -12 0zM798.34 340.68 a6 6 0 1 0 12 0 a6 6 0 1 0 -12 0zM746.38 310.68 a6 6 0 1 0 12 0 a6 6 0 1 0 -12 0zM746.38 250.68 a6 6 0 1 0 12 0 a6 6 0 1 0 -12 0zM798.34 400.68 a6 6 0 1 0 12 0 a6 6 0 1 0 -12 0zM850.31 430.68 a6 6 0 1 0 12 0 a6 6 0 1 0 -12 0zM850.31 490.68 a6 6 0 1 0 12 0 a6 6 0 1 0 -12 0zM798.34 520.68 a6 6 0 1 0 12 0 a6 6 0 1 0 -12 0zM902.27 220.68 a6 6 0 1 0 12 0 a6 6 0 1 0 -12 0zM954.23 250.68 a6 6 0 1 0 12 0 a6 6 0 1 0 -12 0zM954.23 310.68 a6 6 0 1 0 12 0 a6 6 0 1 0 -12 0zM902.27 340.68 a6 6 0 1 0 12 0 a6 6 0 1 0 -12 0zM902.27 400.68 a6 6 0 1 0 12 0 a6 6 0 1 0 -12 0zM798.35 400.68 a6 6 0 1 0 12 0 a6 6 0 1 0 -12 0zM798.35 340.68 a6 6 0 1 0 12 0 a6 6 0 1 0 -12 0zM954.23 -49.32 a6 6 0 1 0 12 0 a6 6 0 1 0 -12 0zM1006.2 -19.32 a6 6 0 1 0 12 0 a6 6 0 1 0 -12 0zM1006.2 40.68 a6 6 0 1 0 12 0 a6 6 0 1 0 -12 0zM954.23 70.68 a6 6 0 1 0 12 0 a6 6 0 1 0 -12 0zM902.27 40.68 a6 6 0 1 0 12 0 a6 6 0 1 0 -12 0zM902.27 -19.32 a6 6 0 1 0 12 0 a6 6 0 1 0 -12 0zM1058.16 70.68 a6 6 0 1 0 12 0 a6 6 0 1 0 -12 0zM1058.16 130.68 a6 6 0 1 0 12 0 a6 6 0 1 0 -12 0zM1006.2 160.68 a6 6 0 1 0 12 0 a6 6 0 1 0 -12 0zM954.23 130.68 a6 6 0 1 0 12 0 a6 6 0 1 0 -12 0zM1006.2 340.68 a6 6 0 1 0 12 0 a6 6 0 1 0 -12 0zM1006.2 400.68 a6 6 0 1 0 12 0 a6 6 0 1 0 -12 0zM954.23 430.68 a6 6 0 1 0 12 0 a6 6 0 1 0 -12 0zM1058.16 430.68 a6 6 0 1 0 12 0 a6 6 0 1 0 -12 0zM1058.16 490.68 a6 6 0 1 0 12 0 a6 6 0 1 0 -12 0zM1006.2 520.68 a6 6 0 1 0 12 0 a6 6 0 1 0 -12 0zM954.23 490.68 a6 6 0 1 0 12 0 a6 6 0 1 0 -12 0zM1110.12 220.68 a6 6 0 1 0 12 0 a6 6 0 1 0 -12 0zM1162.09 250.68 a6 6 0 1 0 12 0 a6 6 0 1 0 -12 0zM1162.09 310.68 a6 6 0 1 0 12 0 a6 6 0 1 0 -12 0zM1110.12 340.68 a6 6 0 1 0 12 0 a6 6 0 1 0 -12 0zM1058.16 310.68 a6 6 0 1 0 12 0 a6 6 0 1 0 -12 0zM1058.16 250.68 a6 6 0 1 0 12 0 a6 6 0 1 0 -12 0zM1110.12 400.68 a6 6 0 1 0 12 0 a6 6 0 1 0 -12 0zM1162.09 430.68 a6 6 0 1 0 12 0 a6 6 0 1 0 -12 0zM1162.09 490.68 a6 6 0 1 0 12 0 a6 6 0 1 0 -12 0zM1110.12 520.68 a6 6 0 1 0 12 0 a6 6 0 1 0 -12 0zM1110.12 580.68 a6 6 0 1 0 12 0 a6 6 0 1 0 -12 0zM1058.16 610.68 a6 6 0 1 0 12 0 a6 6 0 1 0 -12 0zM1006.2 580.68 a6 6 0 1 0 12 0 a6 6 0 1 0 -12 0zM1162.09 -49.32 a6 6 0 1 0 12 0 a6 6 0 1 0 -12 0zM1214.05 -19.32 a6 6 0 1 0 12 0 a6 6 0 1 0 -12 0zM1214.05 40.68 a6 6 0 1 0 12 0 a6 6 0 1 0 -12 0zM1162.09 70.68 a6 6 0 1 0 12 0 a6 6 0 1 0 -12 0zM1110.12 40.68 a6 6 0 1 0 12 0 a6 6 0 1 0 -12 0zM1110.12 -19.32 a6 6 0 1 0 12 0 a6 6 0 1 0 -12 0zM1317.98 40.68 a6 6 0 1 0 12 0 a6 6 0 1 0 -12 0zM1369.94 70.68 a6 6 0 1 0 12 0 a6 6 0 1 0 -12 0zM1369.94 130.68 a6 6 0 1 0 12 0 a6 6 0 1 0 -12 0zM1317.98 160.68 a6 6 0 1 0 12 0 a6 6 0 1 0 -12 0zM1266.01 130.68 a6 6 0 1 0 12 0 a6 6 0 1 0 -12 0zM1266.01 70.68 a6 6 0 1 0 12 0 a6 6 0 1 0 -12 0zM1317.98 220.68 a6 6 0 1 0 12 0 a6 6 0 1 0 -12 0zM1369.94 250.68 a6 6 0 1 0 12 0 a6 6 0 1 0 -12 0zM1369.94 310.68 a6 6 0 1 0 12 0 a6 6 0 1 0 -12 0zM1317.98 340.68 a6 6 0 1 0 12 0 a6 6 0 1 0 -12 0zM1266.01 310.68 a6 6 0 1 0 12 0 a6 6 0 1 0 -12 0zM1266.01 250.68 a6 6 0 1 0 12 0 a6 6 0 1 0 -12 0zM1317.98 400.68 a6 6 0 1 0 12 0 a6 6 0 1 0 -12 0zM1369.94 430.68 a6 6 0 1 0 12 0 a6 6 0 1 0 -12 0zM1369.94 490.68 a6 6 0 1 0 12 0 a6 6 0 1 0 -12 0zM1317.98 520.68 a6 6 0 1 0 12 0 a6 6 0 1 0 -12 0zM1266.01 490.68 a6 6 0 1 0 12 0 a6 6 0 1 0 -12 0zM1266.01 430.68 a6 6 0 1 0 12 0 a6 6 0 1 0 -12 0zM1369.94 -49.32 a6 6 0 1 0 12 0 a6 6 0 1 0 -12 0zM1421.9 -19.32 a6 6 0 1 0 12 0 a6 6 0 1 0 -12 0zM1421.9 40.68 a6 6 0 1 0 12 0 a6 6 0 1 0 -12 0zM1317.98 -19.32 a6 6 0 1 0 12 0 a6 6 0 1 0 -12 0zM1473.86 70.68 a6 6 0 1 0 12 0 a6 6 0 1 0 -12 0zM1473.86 130.68 a6 6 0 1 0 12 0 a6 6 0 1 0 -12 0zM1421.9 160.68 a6 6 0 1 0 12 0 a6 6 0 1 0 -12 0zM1421.9 220.68 a6 6 0 1 0 12 0 a6 6 0 1 0 -12 0zM1421.9 340.68 a6 6 0 1 0 12 0 a6 6 0 1 0 -12 0zM1421.9 400.68 a6 6 0 1 0 12 0 a6 6 0 1 0 -12 0zM1473.86 430.68 a6 6 0 1 0 12 0 a6 6 0 1 0 -12 0zM1473.86 490.68 a6 6 0 1 0 12 0 a6 6 0 1 0 -12 0zM1421.9 520.68 a6 6 0 1 0 12 0 a6 6 0 1 0 -12 0zM1421.9 580.68 a6 6 0 1 0 12 0 a6 6 0 1 0 -12 0zM1369.94 610.68 a6 6 0 1 0 12 0 a6 6 0 1 0 -12 0zM1317.98 580.68 a6 6 0 1 0 12 0 a6 6 0 1 0 -12 0zM1473.86 -49.32 a6 6 0 1 0 12 0 a6 6 0 1 0 -12 0zM1525.83 -19.32 a6 6 0 1 0 12 0 a6 6 0 1 0 -12 0zM1525.83 40.68 a6 6 0 1 0 12 0 a6 6 0 1 0 -12 0zM1577.79 70.68 a6 6 0 1 0 12 0 a6 6 0 1 0 -12 0zM1577.79 130.68 a6 6 0 1 0 12 0 a6 6 0 1 0 -12 0zM1525.83 160.68 a6 6 0 1 0 12 0 a6 6 0 1 0 -12 0zM1525.83 220.68 a6 6 0 1 0 12 0 a6 6 0 1 0 -12 0zM1473.86 250.68 a6 6 0 1 0 12 0 a6 6 0 1 0 -12 0zM1473.86 310.68 a6 6 0 1 0 12 0 a6 6 0 1 0 -12 0zM1525.83 340.68 a6 6 0 1 0 12 0 a6 6 0 1 0 -12 0zM1525.83 400.68 a6 6 0 1 0 12 0 a6 6 0 1 0 -12 0zM1577.79 430.68 a6 6 0 1 0 12 0 a6 6 0 1 0 -12 0zM1577.79 490.68 a6 6 0 1 0 12 0 a6 6 0 1 0 -12 0zM1525.83 520.68 a6 6 0 1 0 12 0 a6 6 0 1 0 -12 0zM1577.79 310.68 a6 6 0 1 0 12 0 a6 6 0 1 0 -12 0zM1629.75 340.68 a6 6 0 1 0 12 0 a6 6 0 1 0 -12 0zM1629.75 400.68 a6 6 0 1 0 12 0 a6 6 0 1 0 -12 0zM1681.72 430.68 a6 6 0 1 0 12 0 a6 6 0 1 0 -12 0zM1681.72 490.68 a6 6 0 1 0 12 0 a6 6 0 1 0 -12 0zM1629.75 520.68 a6 6 0 1 0 12 0 a6 6 0 1 0 -12 0zM1733.68 40.68 a6 6 0 1 0 12 0 a6 6 0 1 0 -12 0zM1785.64 70.68 a6 6 0 1 0 12 0 a6 6 0 1 0 -12 0zM1785.64 130.68 a6 6 0 1 0 12 0 a6 6 0 1 0 -12 0zM1733.68 160.68 a6 6 0 1 0 12 0 a6 6 0 1 0 -12 0zM1681.72 130.68 a6 6 0 1 0 12 0 a6 6 0 1 0 -12 0zM1681.72 70.68 a6 6 0 1 0 12 0 a6 6 0 1 0 -12 0zM1733.68 220.68 a6 6 0 1 0 12 0 a6 6 0 1 0 -12 0zM1681.72 250.68 a6 6 0 1 0 12 0 a6 6 0 1 0 -12 0zM1629.75 220.68 a6 6 0 1 0 12 0 a6 6 0 1 0 -12 0zM1629.75 160.68 a6 6 0 1 0 12 0 a6 6 0 1 0 -12 0zM1785.64 250.68 a6 6 0 1 0 12 0 a6 6 0 1 0 -12 0zM1785.64 310.68 a6 6 0 1 0 12 0 a6 6 0 1 0 -12 0zM1733.68 340.68 a6 6 0 1 0 12 0 a6 6 0 1 0 -12 0zM1681.72 310.68 a6 6 0 1 0 12 0 a6 6 0 1 0 -12 0zM1733.68 400.68 a6 6 0 1 0 12 0 a6 6 0 1 0 -12 0zM1785.64 430.68 a6 6 0 1 0 12 0 a6 6 0 1 0 -12 0zM1785.64 490.68 a6 6 0 1 0 12 0 a6 6 0 1 0 -12 0zM1733.68 520.68 a6 6 0 1 0 12 0 a6 6 0 1 0 -12 0zM1837.61 160.68 a6 6 0 1 0 12 0 a6 6 0 1 0 -12 0zM1837.61 220.68 a6 6 0 1 0 12 0 a6 6 0 1 0 -12 0zM1889.57 250.68 a6 6 0 1 0 12 0 a6 6 0 1 0 -12 0zM1889.57 310.68 a6 6 0 1 0 12 0 a6 6 0 1 0 -12 0zM1837.61 340.68 a6 6 0 1 0 12 0 a6 6 0 1 0 -12 0zM1837.61 520.68 a6 6 0 1 0 12 0 a6 6 0 1 0 -12 0zM1837.61 580.68 a6 6 0 1 0 12 0 a6 6 0 1 0 -12 0zM1785.64 610.68 a6 6 0 1 0 12 0 a6 6 0 1 0 -12 0zM1733.68 580.68 a6 6 0 1 0 12 0 a6 6 0 1 0 -12 0zM1889.57 -49.32 a6 6 0 1 0 12 0 a6 6 0 1 0 -12 0zM1941.53 -19.32 a6 6 0 1 0 12 0 a6 6 0 1 0 -12 0zM1941.53 40.68 a6 6 0 1 0 12 0 a6 6 0 1 0 -12 0zM1889.57 70.68 a6 6 0 1 0 12 0 a6 6 0 1 0 -12 0zM1837.61 40.68 a6 6 0 1 0 12 0 a6 6 0 1 0 -12 0zM1837.61 -19.32 a6 6 0 1 0 12 0 a6 6 0 1 0 -12 0zM1993.49 70.68 a6 6 0 1 0 12 0 a6 6 0 1 0 -12 0zM1993.49 130.68 a6 6 0 1 0 12 0 a6 6 0 1 0 -12 0zM1941.53 160.68 a6 6 0 1 0 12 0 a6 6 0 1 0 -12 0zM1889.57 130.68 a6 6 0 1 0 12 0 a6 6 0 1 0 -12 0zM1941.53 340.68 a6 6 0 1 0 12 0 a6 6 0 1 0 -12 0zM1941.53 400.68 a6 6 0 1 0 12 0 a6 6 0 1 0 -12 0zM1889.57 430.68 a6 6 0 1 0 12 0 a6 6 0 1 0 -12 0zM1837.61 400.68 a6 6 0 1 0 12 0 a6 6 0 1 0 -12 0zM1993.49 430.68 a6 6 0 1 0 12 0 a6 6 0 1 0 -12 0zM1993.49 490.68 a6 6 0 1 0 12 0 a6 6 0 1 0 -12 0zM1941.53 520.68 a6 6 0 1 0 12 0 a6 6 0 1 0 -12 0zM1889.57 490.68 a6 6 0 1 0 12 0 a6 6 0 1 0 -12 0zM2045.46 160.68 a6 6 0 1 0 12 0 a6 6 0 1 0 -12 0zM2045.46 220.68 a6 6 0 1 0 12 0 a6 6 0 1 0 -12 0zM1993.49 250.68 a6 6 0 1 0 12 0 a6 6 0 1 0 -12 0zM1941.53 220.68 a6 6 0 1 0 12 0 a6 6 0 1 0 -12 0zM2097.42 250.68 a6 6 0 1 0 12 0 a6 6 0 1 0 -12 0zM2097.42 310.68 a6 6 0 1 0 12 0 a6 6 0 1 0 -12 0zM2045.46 340.68 a6 6 0 1 0 12 0 a6 6 0 1 0 -12 0zM1993.49 310.68 a6 6 0 1 0 12 0 a6 6 0 1 0 -12 0zM2045.46 400.68 a6 6 0 1 0 12 0 a6 6 0 1 0 -12 0zM2097.42 430.68 a6 6 0 1 0 12 0 a6 6 0 1 0 -12 0zM2097.42 490.68 a6 6 0 1 0 12 0 a6 6 0 1 0 -12 0zM2045.46 520.68 a6 6 0 1 0 12 0 a6 6 0 1 0 -12 0zM2045.46 580.68 a6 6 0 1 0 12 0 a6 6 0 1 0 -12 0zM1993.49 610.68 a6 6 0 1 0 12 0 a6 6 0 1 0 -12 0zM1941.53 580.68 a6 6 0 1 0 12 0 a6 6 0 1 0 -12 0z" fill="rgba(37, 169, 227, 1)"></path></g><defs><mask id="SvgjsMask1301"><rect width="1980" height="560" fill="#ffffff"></rect></mask></defs></svg>