<svg xmlns="http://www.w3.org/2000/svg" version="1.1" xmlns:xlink="http://www.w3.org/1999/xlink" xmlns:svgjs="http://svgjs.com/svgjs" width="1560" height="600" preserveAspectRatio="none" viewBox="0 0 1560 600"><g mask="url(&quot;#SvgjsMask1072&quot;)" fill="none"><circle r="8.58" cx="508.31" cy="521.62" filter="url(#SvgjsFilter1073)" fill="rgba(37, 169, 227, 1)"></circle><circle r="7.755" cx="576.855" cy="394.735" filter="url(#SvgjsFilter1073)" fill="rgba(37, 169, 227, 1)"></circle><circle r="6.925" cx="397.725" cy="193.82500000000002" filter="url(#SvgjsFilter1073)" fill="rgba(37, 169, 227, 1)"></circle><circle r="9.385" cx="1396.365" cy="423.905" filter="url(#SvgjsFilter1073)" fill="rgba(37, 169, 227, 1)"></circle><circle r="8.045" cx="1351.625" cy="60.035000000000004" filter="url(#SvgjsFilter1073)" fill="rgba(37, 169, 227, 1)"></circle><circle r="7" cx="521.17" cy="347.39" filter="url(#SvgjsFilter1073)" fill="rgba(37, 169, 227, 1)"></circle><circle r="6.26" cx="343.12" cy="376.49" filter="url(#SvgjsFilter1073)" fill="rgba(37, 169, 227, 1)"></circle><circle r="5.455" cx="101.765" cy="84.55499999999999" filter="url(#SvgjsFilter1073)" fill="rgba(37, 169, 227, 1)"></circle><circle r="6.155" cx="1172.405" cy="247.715" filter="url(#SvgjsFilter1073)" fill="rgba(37, 169, 227, 1)"></circle><circle r="8.67" cx="722" cy="508.55" filter="url(#SvgjsFilter1073)" fill="rgba(37, 169, 227, 1)"></circle><circle r="6.59" cx="1518.35" cy="509.21" filter="url(#SvgjsFilter1073)" fill="rgba(37, 169, 227, 1)"></circle><circle r="7.39" cx="75.91" cy="541.84" filter="url(#SvgjsFilter1073)" fill="rgba(37, 169, 227, 1)"></circle><circle r="5.79" cx="1074.32" cy="565.48" filter="url(#SvgjsFilter1073)" fill="rgba(37, 169, 227, 1)"></circle><circle r="7.7" cx="50.6" cy="94.96000000000001" filter="url(#SvgjsFilter1073)" fill="rgba(37, 169, 227, 1)"></circle><circle r="5.83" cx="1516.4399999999998" cy="160.06" filter="url(#SvgjsFilter1073)" fill="rgba(37, 169, 227, 1)"></circle><circle r="6.165" cx="556.245" cy="195.255" filter="url(#SvgjsFilter1073)" fill="rgba(37, 169, 227, 1)"></circle><circle r="9.02" cx="1234.2" cy="299.59999999999997" filter="url(#SvgjsFilter1073)" fill="rgba(37, 169, 227, 1)"></circle><circle r="9.005" cx="1233.115" cy="193.225" filter="url(#SvgjsFilter1073)" fill="rgba(37, 169, 227, 1)"></circle><circle r="6.38" cx="1281.8500000000001" cy="26.07" filter="url(#SvgjsFilter1073)" fill="rgba(37, 169, 227, 1)"></circle><circle r="9.705" cx="606.095" cy="73.08500000000001" filter="url(#SvgjsFilter1073)" fill="rgba(37, 169, 227, 1)"></circle><path d="M127.2 93.5L164.1 115.4 167.4 126.9 148.5 145.5 136.7 142.4 115.7 104.8C115.3 104.4 115.3 104.4 115 104 114.2 103.3 113.1 102.9 111.7 103.6 110.5 104.7 110.2 105.8 110.9 107.3L129.4 140.2 111.4 135.3 103.1 120.8C103.1 120.8 102.7 120.5 102.7 120.5 102 119.7 100.9 119.4 99.4 120.1 98.3 120.4 97.9 122.3 98.6 123.8L103.7 133.4 90.5 129.6C89.4 129.2 87.9 129.9 87.2 131.4S87.9 134.3 89.3 135.1L102.2 138.5 93 143.9C91.5 144.7 91.1 146.5 91.8 148 92.6 148.7 94 149.5 95.5 148.7L109.9 140.4 128.2 145.7 95.4 164.2C93.9 164.9 93.5 166.7 93.9 167.8 95 168.9 96.4 169.7 97.9 169L135.2 147.6 147.3 151 153.7 176 144.8 184.8 101.8 184.8C100.4 184.8 99.2 185.9 99.2 187.4S100.3 190 101.8 190L139.7 189.9 126 203.4 109.8 203.3C108.3 203.3 107.2 204.3 106.8 206.2S107.9 208.8 109.4 208.8L120.8 208.5 110.8 218.3C109.6 219.4 110 221.3 111.1 222.4 112.2 223.5 113.7 223.5 114.8 222.4L124.8 212.6 124.7 223.6C124.3 225.4 125.4 226.6 127.2 226.2 128.7 226.2 129.8 225.1 129.8 223.6L130 207.5 143.7 194 143 231.8C143 233.3 144.5 234.8 145.9 234.8S148.5 233.7 148.5 232.2L148.9 188.9 157.8 180.1 183.1 187.3 185.9 199.1 163.9 236C163.2 237.5 163.9 239 165 240.1 166.5 240.8 167.9 240.1 169.1 239L188.1 206.5 192.7 224.5 184.1 238.8C183.4 240.2 184.1 241.7 185.2 242.8 186.3 243.2 188.2 242.9 188.9 241.4L194.5 232.2 198.1 245.5C198.4 246.6 199.9 247.4 201.4 247.4 202.8 246.6 203.6 245.2 203.2 244.1L199.6 230.8 209.5 236.4C210.6 236.8 212.5 236.4 212.8 235.3 214 234.2 213.6 233.1 212.5 232 212.5 232 212.1 231.6 212.1 231.6L197.9 223.1 193.2 205 225.8 224C227.3 224.8 228.7 224.8 229.5 223.3 230.2 221.9 229.9 220.8 229.1 220 228.8 219.6 228.8 219.6 228.8 219.6L191.1 197.7 188.2 185.9 207.1 167.3 218.5 170.7 240.3 208.3C240.6 209.4 242.5 209.8 243.6 209.5 245 208.7 245.4 206.9 244.7 205.4L226.2 172.6 244.2 177.5 252.5 191.9C253.3 193.4 254.7 194.1 255.8 193 257.3 192.3 257.7 190.5 257.3 189.3L251.5 179.7 264.7 183.5C266.2 183.5 267.7 182.8 268.4 181.3 268.4 180.6 268.1 179.5 267.3 178.8 267 178.4 267 178.4 266.2 178.4L253 174.6 262.6 168.8C264.1 168.1 264.1 166.6 263.8 165.5 263.4 165.1 263.4 165.1 263 164.8 262.3 164 261.2 163.6 260.1 164L245.7 172.3 227.7 167.4 260.6 148.9C261.7 147.8 262.5 146.4 261.4 145.3 261.4 144.5 261.4 144.5 261 144.1 260.3 143.4 258.8 143.4 257.7 143.8L220 165.5 208.6 162.1 201.9 136.7 210.4 128.3 253.8 128.6C255.2 128.7 256.7 127.2 256.7 125.7S255.3 122.8 253.8 122.8L215.9 122.8 229.3 109.7 245.8 109.5C247.3 109.5 248.4 108.4 248.4 106.9 248.4 105.4 247.3 104.3 245.9 104.3L234.8 104.2 244.8 94.4C245.6 93.6 246 91.8 244.9 90.7 243.8 89.6 241.6 89.6 240.8 90.3L230.8 100.2 230.9 89.1C230.9 88.4 230.9 87.7 230.6 87.3 229.8 86.5 229.1 86.5 228.4 86.5 226.9 86.5 225.8 87.6 225.8 89.1L225.3 105.6 211.9 118.8 212.6 80.9C212.6 80.2 212.2 79.8 211.5 79 211.1 78.7 210.8 78.3 210 78.3 208.6 78.3 207.1 79.7 207.1 81.2L206.4 124.2 197.8 132.6 172.9 125.8 169.3 114 191.7 76.7C192 75.6 192.1 74.1 191.3 73.4 191 73 191 73 190.6 73.4 189.5 72.3 187.6 72.6 186.9 74.1L167.9 106.6 162.9 88.2 171.5 73.9C171.8 72.8 171.5 71.7 170.7 71 170.7 71 170.4 70.6 170.4 70.6 169.3 69.5 167.4 69.9 166.7 71.3L161.1 81.2 157.5 68C157.5 67.2 157.2 66.8 156.8 66.5 156.1 65.7 155 65.4 154.6 65.7 152.8 66.1 152 67.5 152 69L155.6 82.3 146.4 76.7C145 75.9 143.1 76.3 142.4 77.8 142 78.9 142.4 80.7 143.5 81.1L157.7 89.7 162.4 107.7 129.8 88.7C128.3 87.9 126.9 88.7 125.7 89.8 125.4 90.9 125.7 92.7 127.2 93.5ZM154.7 147.4L169.2 133.1 171.4 130.9 174.3 131.7 193.4 137 196.7 138.1 197.4 141.1 202.4 160.2 203.1 163.2 200.9 165.4 186.4 179.6 184.2 181.8 181.3 181 162.2 175.7 159.3 175 158.2 171.7 153.2 152.5 152.5 149.5 154.7 147.4Z" fill="rgba(37, 169, 227, 1)"></path><path d="M496.7 92L530.9 97.1 538.2 107.4 526.7 105.6C525.5 105.1 524.6 106.1 524.1 107.3 524.1 108.3 525 109.6 525.9 109.6L541.8 112.2 549.3 122.1 536.9 123.4 524.4 113.1C524.4 113.1 524 112.9 524 112.9 523.2 112.6 522 113 521.3 113.7 520.8 114.9 520.8 115.8 521.8 116.7L530.9 124 518.6 125.3 491.5 103.9C491.5 103.9 491.3 103.4 491.3 103.4 490.5 103 489.3 103.5 488.6 104.1 487.7 105.1 488 106.6 489.1 107.1L512.6 125.9 497.6 127.9 487.1 119.5C487.1 119.5 487.1 119.5 486.7 119.3 485.9 119 484.9 119 484.1 119.6 483.6 120.8 483.5 122.2 484.5 123.1L491.6 128.6 480.6 129.9C479.2 129.8 478.7 131 478.8 131.9 478.6 133.3 479.6 134.2 481.2 133.9L492 133 486.3 139.5C485.8 140.7 485.7 142.1 486.9 142.6 487.9 143.5 488.8 143.4 489.8 142.4L498.2 131.9 513 130.4 494.1 154.2C493.3 154.9 493.6 156.4 494.6 157.3 495.4 157.7 496.8 157.8 497.7 156.8L519 129.7 531.4 128.5 524.1 137.6C523.1 138.6 523.6 139.7 524.6 140.7 525.2 141.4 526.8 141.1 527.5 140.5L537.3 127.8 549.9 126.2 544.8 137.7 530 143.5C528.8 143.9 528.3 145.1 528.8 146.3 528.8 147.2 530.4 147.9 531.5 147.5L542.4 143.3 537.4 154.8 505 167.1C503.8 167.5 503.3 168.7 503.8 169.9 504.2 171 505.4 171.5 506.6 171.1L534.9 160.3 529 173.8 516.4 178.7C515.3 179.2 514.8 180.4 515.2 181.5 515.7 182.6 516.9 183.2 518 182.7L526.4 179.8 522 189.7C521.5 190.9 522 192 523.2 192.5 524.4 193.1 525.5 192.6 526 191.4L530.4 181.5 533.5 189.5C533.9 190.6 535.1 191.2 536.3 190.7S537.9 189.1 537.5 187.9L532.8 176 538.9 162.1 549.8 190C550.3 191.2 551.5 191.7 552.6 191.2 553.7 190.8 554.3 189.6 553.8 188.5L541.3 156.5 546.4 145 550.6 155.8C551 157 552.2 157.5 553.4 157.1 554.5 156.6 555 155.4 554.6 154.3L548.8 139.4 553.7 128.3 560.8 138.1 558.5 154.1C558.5 155 559.4 156.4 560.3 156.3 561.7 156.4 562.4 155.8 563 154.6L564.7 143.1 571.8 152.8 566.7 187C566.6 188.4 567.2 189.1 568.4 189.7 569.8 189.8 570.7 188.8 571.1 188L575.7 157.9 584.5 170.2 582.6 183.1C582.1 184.3 583.1 185.2 584.3 185.8 585.3 185.7 586.6 184.9 586.7 183.5L588.1 175.1 594.7 183.7C595.1 184.8 596.5 184.9 597.8 184.1 598.6 183.5 598.7 182.1 598.1 181.4L591.6 172.4 600.4 173.9C601.8 174 602.7 173 602.6 172 603.2 170.8 602.6 170.1 601.8 169.7 601.4 169.6 601.4 169.6 601 169.4L588.1 167.5 579.3 155.2 609 159.7C610.2 160.2 611.1 159.2 611.6 158 611.6 157 611 156.3 610.2 155.9 609.8 155.7 609.8 155.7 609.8 155.7L575.3 150.1 568.3 140.4 579.8 142.1C581.2 142.3 581.9 141.6 582.4 140.4 582.4 139.5 581.9 138.3 581.1 138 580.7 137.8 580.7 137.8 580.3 137.6L564.3 135.4 557.2 125.6 569.2 124.2 581.9 134.1C582.9 135 584.5 134.7 585.2 134.1 585.7 132.9 585.8 131.5 584.7 131L575.6 123.7 587.7 121.9 615 143.8C615.6 144.6 617.2 144.3 617.9 143.7 618.4 142.5 618.5 141.1 617.5 140.2L594.1 121.4 608.9 119.9 619 128.1C620.1 129 621.6 128.8 622.1 127.6 622.9 126.9 623 125.6 622 124.7L614.9 119.2 625.9 117.9C626.9 117.8 627.8 116.8 627.9 115.4 627.7 114.9 627.1 114.1 626.3 113.8 626.3 113.8 625.9 113.6 625.5 113.4L614.5 114.8 620 107.7C620.7 107.1 620.4 105.5 619.8 104.8 619.4 104.6 619.4 104.6 619.4 104.6 618.2 104.1 617.1 104.5 616.7 105.3L608.5 115.5 593.5 117.4 612.4 93.5C613 92.3 612.9 91.4 611.9 90.4 611.9 90.4 611.5 90.3 611.5 90.3 610.7 89.9 609.7 90 608.8 91L587.1 117.9 575.1 119.3 582.4 110.2C583 109 583.1 107.6 581.9 107.1 582.1 106.7 581.7 106.5 581.7 106.5 580.9 106.2 579.7 106.6 579 107.2L569.2 120 556.8 121.2 561.7 110.1 576.5 104.3C577.7 103.8 578.3 102.2 577.9 101.1 577.3 100.3 576.1 99.8 575.1 99.9L564.1 104.5 569.1 93 601.1 80.5C602.3 80.1 602.8 78.9 602.3 77.7 601.9 76.6 600.7 76.1 599.5 76.5L571.6 87.4 577.7 73.6 589.7 68.9C590.8 68.4 591.3 67.2 590.9 66.1S589.2 64.4 588.1 64.9L580.1 68 584.4 58.1C585 56.9 584.5 55.7 583.3 55.2 582.1 54.7 581 55.1 580.5 56.3L576.1 66.3 572.6 58.1C572.4 57.5 572.2 56.9 571.8 56.8 571.4 56.6 570.4 56.6 569.8 56.9 568.7 57.3 568.2 58.5 568.6 59.7L573.7 71.8 567.6 85.7 556.3 57.6C556.1 57 555.8 56.4 555.4 56.2 555 56.1 554.1 56.1 553.5 56.3 552.4 56.8 551.8 58 552.3 59.1L565.2 91.3 560.1 102.8 556.1 91.5C555.8 91 555.1 90.6 554.7 90.4 554.3 90.3 553.9 90.1 553.3 90.3 552.1 90.8 551.5 92.3 552.1 93.1L557.7 108.3 552.8 119.4 545.3 109.5 548 93.7C548 92.7 547.5 91.6 546.7 91.2 546.3 91.1 546.3 91.1 546.2 91.4 545 90.9 543.7 91.8 543.5 93.1L541.8 104.7 534.3 94.8 539.9 60.3C539.9 59.4 539.3 58.6 538.5 58.3 538.1 58.1 538.1 58.1 538.1 58.1 536.7 58 535.6 58.4 535.4 59.8L530.8 89.9 522 77.5 523.9 64.6C524 63.3 523.4 62.5 522.6 62.2 522.6 62.2 522.2 62 522.2 62 520.8 61.9 519.9 62.9 519.5 63.7L518.4 72.7 512 63.7C511.6 63.5 511.2 63.3 510.8 63.2 510.4 63 509.4 63 508.8 63.3 507.9 64.3 507.4 65.5 508.4 66.4L514.9 75.4 506.1 73.9C504.7 73.8 503.8 74.8 503.5 75.6 503.3 76.9 504.3 77.9 505.5 78.4L518.4 80.2 527.4 92.2 497.7 87.7C496.3 87.6 495 88.4 495 89.4 494.9 90.8 495.4 91.9 496.7 92Z" fill="rgba(37, 169, 227, 1)"></path><path d="M892.3 499L853.3 457 853.4 441.2 884.6 424.5 898.5 432.7 911.2 488.8C911.6 489.4 911.6 489.4 911.9 490.1 912.6 491.3 913.8 492.2 916 491.8 917.8 490.8 918.7 489.6 918.3 487.4L907 438.4 928.2 451.4 933.4 473C933.4 473 933.8 473.6 933.8 473.6 934.4 474.8 935.7 475.7 937.9 475.4 939.4 475.3 940.6 473.1 940.2 470.9L937.3 456.8 952.8 466.6C954.1 467.5 956.2 467.1 957.7 465.5S957.9 461.4 956.3 459.9L941.2 450.8 955 447.3C957.2 446.9 958.4 444.7 958 442.5 957.4 441.3 955.8 439.8 953.6 440.2L932 445.4 910.6 431.8 959.5 420.5C961.7 420.1 962.9 417.9 962.8 416.3 961.9 414.5 960.3 413 958.1 413.4L902.3 426.7 888.1 417.8 889.3 383.4 904 375.5 959 391.6C960.9 392.2 962.7 391.2 963.3 389.3S962.9 385.6 961 385.1L912.5 370.9 935.1 358.8 955.8 365C957.7 365.6 959.5 364.6 960.7 362.4S960.3 358.7 958.4 358.1L943.7 354.2 960.2 345.4C962 344.4 962.3 341.9 961.3 340.1 960.3 338.2 958.4 337.7 956.6 338.6L940.1 347.5 944.3 333.4C945.5 331.2 944.5 329.4 942.1 329.1 940.2 328.6 938.3 329.6 937.8 331.4L931.5 352.1 908.9 364.2 924 316C924.6 314.1 923.3 311.7 921.4 311.1S917.7 311.5 917.1 313.4L900.4 368.8 885.7 376.7 856 358 856.8 341.8 898.8 302.8C900.3 301.2 899.9 299 899 297.2 897.4 295.7 895.2 296 893.4 297L856.8 331.6 857.7 306.7 874 291.7C875.5 290.1 875.1 287.9 874.1 286.1 872.9 285.2 870.4 285 868.9 286.6L858.3 296.2 858.7 277.9C858.7 276.3 857.1 274.8 855.2 274.2 853 274.6 851.5 276.2 851.6 277.7L851.2 296.1 840.6 285.2C839.3 284.3 836.9 284.1 836 285.3 834.1 286.3 834.2 287.9 835.1 289.7 835.1 289.7 835.5 290.3 835.5 290.3L850.5 306.6 849.7 331.5 815.1 294.9C813.5 293.4 811.7 292.8 810.2 294.4 808.7 296 808.7 297.6 809.4 298.8 809.7 299.4 809.7 299.4 809.7 299.4L849.7 341.7 848.9 357.9 817.7 374.6 804.4 365.9 790.7 309.6C790.7 308 788.5 306.8 786.9 306.9 784.8 307.3 783.6 309.5 784 311.6L795.3 360.6 774.1 347.6 768.9 326C768.5 323.9 766.9 322.3 765.1 323.3 762.9 323.7 761.7 325.9 761.8 327.5L765.6 341.9 750.1 332.1C748.2 331.6 746.1 331.9 744.6 333.5 744.3 334.5 744.3 336 745 337.2 745.3 337.9 745.3 337.9 746.3 338.1L761.7 347.9 747.3 351.8C745.1 352.1 744.5 354 744.6 355.6 744.9 356.2 744.9 356.2 745.2 356.8 745.9 358 747.2 358.9 748.7 358.9L770.3 353.6 791.4 366.6 742.4 378C740.6 378.9 739.1 380.5 740.1 382.4 739.8 383.3 739.8 383.3 740.1 383.9 740.8 385.1 742.7 385.7 744.2 385.7L800.6 372 813.9 380.6 813 415.6 798.9 423.2 743.6 406.5C741.7 405.9 739.2 407.2 738.7 409.1S739.4 413.4 741.3 414L789.8 428.1 767.8 439.9 746.5 434C744.6 433.4 742.8 434.4 742.2 436.3 741.7 438.2 742.7 440 744.5 440.6L758.6 444.8 742.1 453.6C740.9 454.3 739.7 456.5 740.7 458.3 741.7 460.2 744.5 461 745.7 460.4L762.2 451.5 758 465.6C757.7 466.5 757.4 467.5 757.7 468.1 758.4 469.3 759.3 469.6 760.3 469.9 762.1 470.4 764 469.5 764.5 467.6L771.4 446.6 793.4 434.8 778.3 483C778 484 778.4 484.6 779 485.8 779.3 486.4 779.7 487 780.6 487.3 782.5 487.9 784.9 486.5 785.5 484.7L802.5 429.9 816.6 422.4 846 440.4 846.1 456.9 803.5 496.3C802.6 497.5 802.1 499.4 802.7 500.6 803 501.2 803 501.2 803.6 500.9 804.6 502.7 807.1 503 808.6 501.4L845.2 466.8 844.7 492.3 828.3 507.3C827.4 508.6 827.5 510.1 828.1 511.4 828.1 511.4 828.5 512 828.5 512 829.4 513.8 831.9 514.1 833.4 512.5L844.3 501.9 843.9 520.2C843.6 521.2 843.9 521.8 844.3 522.4 844.9 523.6 846.2 524.5 846.8 524.2 849.3 524.4 850.8 522.8 851.4 520.9L851.8 502.6 861.4 513.2C863 514.7 865.5 515 867 513.4 867.9 512.1 868.1 509.6 866.8 508.7L851.8 492.4 852.6 467.6 887.2 504.1C888.8 505.6 890.9 505.2 892.8 504.3 893.7 503 893.9 500.5 892.3 499ZM877.3 419.7L853.5 432.5 849.8 434.4 846.4 432.4 823.9 418.4 820.1 415.7 820.3 411.7 821.1 385.3 821.3 381.3 825 379.3 848.8 366.5 852.5 364.6 856 366.6 878.4 380.6 881.9 382.7 882 387.3 881.2 413.7 881 417.7 877.3 419.7Z" fill="rgba(37, 169, 227, 1)"></path><path d="M313 378.6L307.6 369.1 315 368.9C315.7 369 316.5 368.3 316.8 367.2 316.5 366.2 315.8 365.4 315 365.4L305.4 365.4 300.5 356.6 320 356.7C321.3 356.6 322.1 355.9 321.8 354.9 322.1 353.8 321.3 353 320.1 353.1L298.5 353.1 293.9 345.2 304.4 326.8 312.5 326.7 323.7 346.8C324 347 324.3 347.1 324.6 347.3 324.9 347.5 325.7 347.5 326.2 347.4 327.3 346.9 327.5 345.8 326.8 345L316.6 326.6 326.5 326.8 332 336C331.8 336.3 332.1 336.4 332.4 336.6 333 336.9 333.8 337 334.4 336.6 335.1 336.1 335.3 335.1 335.1 334.1L330.5 326.7 343 326.7C343.7 326.7 344.5 326 344.8 324.9 344.5 324 343.8 323.1 343 323.1L331.4 323.2 335 316.9C335.5 316 335 314.9 334.4 314.5 333.5 314 332.2 314.1 331.7 315L327 323.1 317.1 322.9 326.8 306.1C327.3 305.2 327.1 304.3 326.2 303.8 325.3 303.2 324.3 303.5 323.8 304.4L313 323 304.5 323.3 293.9 304.8 297.9 297.9 320 297.8C321.1 298 322.1 297 321.8 296 322 295 321.1 294.5 320 294.2L300 294.3 305 285.6 315 285.7C315.7 285.7 316.7 284.7 316.8 283.9S315.8 282.2 314.7 282L307.1 282 313.2 271.5C313.7 270.6 313.1 269.4 312.2 268.9 311.6 268.6 310.4 268.7 309.9 269.6L303.8 280.1 299.7 273.3C299.3 272.6 298.4 272.1 297.3 272.7 296.6 273.1 296.2 274.5 296.6 275.1L301.7 283.7 296.7 292.4 286.7 275C286 274.2 285.1 273.7 284 274.2 283.3 274.6 282.9 276 283.4 276.7L294.6 296 290.6 302.9 269.4 303 265.3 295.5 276 276.8C276.6 275.9 276.3 275 275.4 274.5 274.5 274 273.3 274 272.7 274.9L263 291.8 258 283.2 262.6 275.1C263.2 274.2 262.9 273.3 262 272.7 261.1 272.2 260.2 272.5 259.6 273.4L256 279.7 250.2 269.6C249.8 268.9 248.4 268.5 247.8 268.9 247 269.7 246.4 270.6 247.2 271.4L253.1 282 244.7 282C243.7 282.2 242.9 282.9 242.9 283.7 242.8 284.5 243.2 285.1 243.8 285.5 243.8 285.5 244.1 285.7 244.6 285.5L255.3 285.7 260.4 294.2 239.4 294.5C238.3 294.3 237.5 295 237.6 296.3 237.7 296.8 237.9 297.2 238.5 297.6 238.8 297.8 239.1 297.9 239.4 298.1L262.4 297.8 266.3 304.8 255.7 323.2 246.6 323.1 235.7 304.4C235.2 303.3 234.1 303.1 233.3 303.8 232.3 304 232.1 305.1 232.7 306.2L242.5 323.1 232.4 323.3 227.6 315C227.2 314.3 226.1 314.1 225.2 314.3 224.4 315.1 223.8 316 224.6 316.8L228.1 323.2 217.2 323.3C216.1 323.1 215.6 324 215.4 325.1 215.5 325.6 215.9 326.2 216.5 326.6 216.5 326.6 216.8 326.7 217.1 326.9L228.8 326.8 224.5 334.3C224.1 334.9 224.2 336.2 225.1 336.7 226 337.2 227.1 336.7 227.5 336.1L232.8 326.8 242.9 326.6 232.4 344.9C231.8 345.8 232.4 346.9 233.3 347.4S235.1 347.7 235.7 346.8L247.3 326.7 255.7 326.7 266.2 345.2 261.7 353 239.3 352.9C238.4 353.2 237.6 353.9 237.4 355 237.5 355.5 237.9 356.1 238.5 356.4 238.8 356.6 239.1 356.8 239.6 356.7L259.6 356.6 254.6 365.3 244.5 365.5C243.7 365.5 242.9 366.2 242.7 367.3 242.9 368.2 243.7 369 244.4 369.1L252.5 368.9 247 378.5C246.6 379.1 247 380.6 247.6 380.9 248.5 381.4 249.9 381 250.3 380.4L255.8 370.8 259.4 377.7C259.7 377.9 260 378.1 260.3 378.3 260.9 378.6 261.7 378.6 262.2 378.5 263 377.8 263.2 376.7 263 375.8L257.9 367.2 262.9 358.5 272.9 375.9C273.5 377 274.5 377.2 275.2 376.8 276.3 376.3 276.5 375.2 276.3 374.2L265 354.9 269.5 347.1 290.8 347 295 354.2 283.4 374.4C282.9 375.3 283.1 376.2 284 376.7 284.9 377.2 285.9 377 286.4 376.1L297 357.8 301.9 366.6 296.5 375.9C296.2 376.5 296.6 377.9 297.5 378.5 298.4 379 299.5 378.4 299.8 377.8L304.2 370.3 309.9 380.4C310.2 380.6 310.2 380.6 310.5 380.8 311.1 381.1 311.9 381.2 312.4 381.1 313.2 380.3 313.4 379.3 313 378.6ZM271.6 343.5L269.3 343.4 268.3 341.6 259.7 326.7 258.7 324.9 259.8 323.1 268.3 308.4 269.3 306.6 271.3 306.5 288.6 306.5 290.6 306.4 291.9 308.4 300.1 323.2 301.4 325.1 300.4 326.9 291.9 341.6 290.9 343.4 288.5 343.3 271.6 343.5Z" fill="rgba(37, 169, 227, 1)"></path><path d="M985 57.1L1006.5 74.5 1007.3 84.6 1000.1 78.7C999.5 77.8 998.4 78.1 997.6 78.8 997.2 79.4 997.3 80.7 998 81L1007.8 89.4 1008.9 99.2 999.9 95 995.4 82.9C995.4 82.9 995.2 82.6 995.2 82.6 994.8 82 993.9 81.9 993.1 82 992.2 82.6 991.9 83.3 992.2 84.3L995.5 93.1 986.5 88.8 976.6 63.1C976.6 63.1 976.6 62.6 976.6 62.6 976.2 62.1 975.3 61.9 974.5 62 973.5 62.4 973 63.5 973.6 64.4L982.1 86.9 971 82.1 967.2 72C967.2 72 967.2 72 967 71.7 966.6 71.2 965.9 70.8 965.1 70.9 964.3 71.5 963.6 72.4 963.9 73.5L966.6 80.1 958.5 76.5C957.6 75.9 956.7 76.5 956.4 77.2 955.7 78.1 956 79.1 957.2 79.6L965 83.3 958.5 85.5C957.6 86.1 957 87 957.6 87.8 957.9 88.9 958.6 89.2 959.7 88.9L969.7 85.1 980.6 90.1 957.8 98.8C957 98.9 956.6 100.1 956.9 101.1 957.3 101.7 958.2 102.3 959.2 102L985 92.1 994 96.3 985.2 99.6C984.2 99.9 984 100.9 984.3 101.9 984.5 102.7 985.6 103.1 986.4 103L998.4 98.3 1007.6 102.3 999.5 108.1 986.9 106.1C985.9 105.9 985.1 106.5 984.9 107.5 984.6 108.2 985.4 109.3 986.3 109.4L995.5 111 987.4 116.8 960.1 112.1C959.1 111.9 958.3 112.5 958.1 113.5 957.9 114.5 958.5 115.3 959.5 115.5L983.4 119.6 973.8 126.5 963.2 124.8C962.2 124.6 961.4 125.2 961.2 126.2 961.1 127.1 961.7 128 962.6 128.2L969.6 129.5 962.6 134.6C961.7 135.2 961.6 136.2 962.2 137 962.8 137.9 963.8 138 964.6 137.4L971.6 132.4 970.5 139.1C970.4 140.1 971 140.9 971.9 141.1S973.8 140.7 973.9 139.7L975.6 129.5 985.4 122.5 981.5 146.2C981.4 147.1 982 148 983 148.1 983.9 148.3 984.8 147.7 984.9 146.7L989.4 119.6 997.6 113.8 996 123C995.9 123.9 996.5 124.8 997.5 124.9 998.4 125.1 999.3 124.5 999.4 123.5L1001.5 110.9 1009.4 105.3 1010.3 114.9 1002.2 125C1001.8 125.7 1001.9 126.9 1002.5 127.3 1003.4 127.9 1004.2 127.8 1005 127.2L1010.9 119.9 1011.9 129.5 994.4 151C993.8 151.9 993.9 152.7 994.5 153.5 995.4 154.2 996.4 153.8 997 153.4L1012.5 134.6 1013.5 146.7 1006.9 154.8C1006.1 155.4 1006.4 156.5 1007 157.3 1007.7 157.7 1009 157.6 1009.6 156.7L1014 151.5 1015 160.1C1014.9 161.1 1015.7 161.7 1017 161.7 1017.8 161.6 1018.4 160.7 1018.3 159.9L1017.5 151.1 1022.9 155.7C1023.8 156.4 1024.9 156 1025.2 155.3 1026.1 154.7 1026 154 1025.6 153.4 1025.4 153.1 1025.4 153.1 1025.2 152.8L1017 146.3 1016.1 134.2 1034.7 149.4C1035.3 150.3 1036.3 150 1037.2 149.4 1037.5 148.7 1037.4 147.9 1037 147.3 1036.8 147.1 1036.8 147.1 1036.8 147.1L1015.4 129.1 1014.5 119.5 1021.7 125.4C1022.6 126.1 1023.4 126 1024.2 125.4 1024.6 124.7 1024.7 123.7 1024.3 123.1 1024.1 122.9 1024.1 122.9 1023.9 122.6L1013.8 114.5 1012.9 104.9 1021.7 108.8 1026.5 120.8C1026.8 121.8 1028 122.2 1028.7 122.1 1029.6 121.5 1030.2 120.6 1029.6 119.8L1026.3 111.1 1035.4 114.8 1045.2 141C1045.4 141.8 1046.5 142.2 1047.3 142.1 1048.1 141.5 1048.8 140.6 1048.5 139.5L1040 117 1050.8 122 1054.5 131.8C1054.8 132.9 1055.9 133.3 1056.8 132.7 1057.6 132.6 1058.2 131.7 1057.9 130.6L1055.2 124 1063.3 127.6C1064 127.9 1065.1 127.6 1065.7 126.7 1065.8 126.2 1065.7 125.5 1065.3 124.9 1065.3 124.9 1065.1 124.6 1064.9 124.3L1056.8 120.8 1063.4 118.1C1064.2 118 1064.6 116.9 1064.5 116.1 1064.3 115.8 1064.3 115.8 1064.3 115.8 1063.7 115 1062.7 114.8 1062.2 115.2L1052.4 118.8 1041.2 114 1064 105.3C1064.9 104.7 1065.2 104 1064.9 103 1064.9 103 1064.7 102.7 1064.7 102.7 1064.3 102.1 1063.6 101.8 1062.6 102.1L1036.6 111.8 1027.8 107.8 1036.6 104.5C1037.4 103.9 1038.1 103 1037.5 102.2 1037.7 102 1037.5 101.7 1037.5 101.7 1037.1 101.2 1036.2 101 1035.4 101.1L1023.4 105.9 1014.5 101.6 1022.3 96 1034.9 98.1C1035.9 98.2 1037 97.4 1037.2 96.4 1037 95.7 1036.4 94.8 1035.8 94.5L1026.3 93.2 1034.4 87.3 1061.5 91.8C1062.5 91.9 1063.4 91.3 1063.5 90.3 1063.7 89.4 1063.1 88.5 1062.1 88.4L1038.4 84.5 1048.3 77.4 1058.4 79.1C1059.4 79.2 1060.2 78.6 1060.4 77.7S1059.9 75.8 1059 75.7L1052.2 74.6 1059.2 69.5C1060.1 68.9 1060.2 67.9 1059.6 67.1 1059 66.2 1058.1 66.1 1057.2 66.7L1050.2 71.7 1051.1 64.7C1051.2 64.2 1051.2 63.7 1051 63.4 1050.8 63.2 1050.2 62.8 1049.7 62.7 1048.7 62.6 1047.9 63.2 1047.7 64.1L1046.2 74.6 1036.4 81.7 1040.1 57.7C1040.1 57.2 1040.2 56.7 1040 56.4 1039.8 56.1 1039.1 55.8 1038.7 55.7 1037.7 55.5 1036.8 56.1 1036.7 57.1L1032.4 84.5 1024.3 90.3 1026.1 80.9C1026.1 80.5 1025.7 79.9 1025.5 79.6 1025.3 79.3 1025.1 79.1 1024.6 79 1023.7 78.8 1022.5 79.6 1022.7 80.4L1020.3 93.2 1012.4 98.8 1011.3 89 1019.6 79.1C1020 78.5 1020.2 77.5 1019.8 76.9 1019.6 76.6 1019.6 76.6 1019.3 76.9 1018.7 76 1017.4 76 1016.8 76.9L1010.9 84.2 1009.8 74.3 1027.7 52.9C1028 52.2 1027.9 51.4 1027.5 50.9 1027.3 50.6 1027.3 50.6 1027.3 50.6 1026.4 50 1025.5 49.8 1024.8 50.7L1009.3 69.5 1008.3 57.4 1014.9 49.3C1015.5 48.4 1015.4 47.6 1015 47.1 1015 47.1 1014.8 46.8 1014.8 46.8 1013.9 46.2 1012.8 46.5 1012.3 46.9L1007.9 52.6 1007.1 43.8C1006.9 43.5 1006.7 43.2 1006.5 42.9 1006.3 42.7 1005.6 42.3 1005.1 42.2 1004 42.5 1003.2 43.2 1003.5 44.2L1004.3 53 998.9 48.4C998 47.8 996.9 48.1 996.4 48.5 995.7 49.4 996 50.4 996.7 51.3L1004.8 57.8 1006 69.7 987.4 54.5C986.5 53.8 985.3 53.9 984.9 54.6 984.3 55.4 984.1 56.4 985 57.1Z" fill="rgba(37, 169, 227, 1)"></path><path d="M1555.5 387.3L1553.7 437.6 1520.7 467.9 1510.9 424.1 1538.1 381.8C1538.1 381.8 1538.3 381.2 1538.3 381.2 1538.7 380.1 1537.9 378.6 1536.9 377.6 1535.3 376.5 1533.2 377.1 1532.7 378.8L1509 415.9 1504.2 394.7 1514.4 378.2C1514.4 378.2 1514.6 377.6 1514.6 377.6 1515 376.5 1514.2 375 1513.2 374 1511.7 372.9 1509.6 373.5 1509 375.3L1501.7 386.3 1498.4 370.7C1498.2 369.3 1496 368 1494.7 368.2 1492.8 368.3 1492 370.6 1492.3 371.9L1495.6 387.6 1484.5 380.3C1483 379.2 1480.9 379.8 1480.4 381.5 1479.2 383.1 1479.8 385.2 1481.6 385.7L1498.1 396 1502.3 417 1465.2 393.3C1463.7 392.2 1461.6 392.8 1461 394.6 1459.9 396.1 1460.5 398.2 1462.2 398.8L1504.6 426 1514.4 469.8 1471 456.2 1447.5 411.3C1446.7 409.8 1445 409.2 1443.5 410 1441.9 410.8 1441.4 412.6 1442.2 414.1L1462.9 453.6 1442 447.1 1433.3 430.4C1432.5 428.9 1430.7 428.3 1429.2 429.1 1427.7 429.9 1427.2 431.6 1428 433.2L1433.9 444.6 1417.7 439.5C1416.2 438.4 1414.5 439.7 1413.9 441.5 1413.4 443.2 1414.2 444.7 1415.9 445.3L1431 450 1419.6 456C1418 456.8 1417.5 458.5 1418.3 460S1420.8 462.1 1422.3 461.3L1439.1 452.5 1459.9 459 1420.4 479.7C1418.9 480.5 1418.3 482.3 1419.1 483.8 1419.9 485.3 1421.6 485.8 1423.2 485.1L1468 461.6 1510.9 475 1477.8 505.3 1428.9 503.4C1427 503.4 1425.8 505 1425.3 506.7 1425.3 508.6 1426.9 509.7 1428.6 510.3L1472.6 512 1456.5 526.7 1437.1 525.7C1435.2 525.7 1434.1 527.3 1433.6 529 1433.6 530.9 1435.2 532 1436.3 532.4L1449.6 532.7 1437.9 543.7C1436.9 544.7 1436.2 547 1437.8 548.1 1439.3 549.2 1441 549.8 1442.2 548.2L1453.9 537.3 1453.5 550.5C1453.6 552.4 1455.1 553.5 1456.3 553.9 1457.6 553.7 1459.1 552.9 1459.5 551.7 1459.5 551.7 1459.7 551.2 1459.7 551.2L1460.7 531.8 1476.7 517.1 1475 561C1475.1 563 1476.6 564.1 1477.8 564.4 1479.1 564.2 1480.6 563.4 1481 562.3 1481 562.3 1481.2 561.7 1481.2 561.7L1482.9 511.4 1516 481 1525.8 524.8 1498.5 567.1C1497.4 568.7 1498 570.8 1499.8 571.3 1501.3 572.5 1503.4 571.8 1504 570.1L1527.7 533 1532.5 554.2 1522.2 570.7C1521.1 572.3 1521.7 574.4 1523.4 574.9 1525 576 1527.1 575.4 1527.6 573.7L1534.9 562.6 1538.3 578.3C1538.5 579.6 1540.6 580.9 1542 580.7 1543.3 580.5 1544.2 579.5 1544.6 578.4 1544.8 577.8 1545 577.2 1544.6 576.5L1541.2 560.8 1552.3 568.1C1553.8 569.2 1555.9 568.6 1556.5 566.8 1556.5 566.8 1556.7 566.3 1556.7 566.3 1557 565.1 1556.2 563.6 1555.3 562.6L1538.8 552.4 1534 531.2 1571 554.9C1572.6 556 1574.7 555.4 1575.2 553.6 1575.2 553.6 1575.4 553.1 1575.4 553.1 1575.8 551.9 1575 550.4 1574 549.4L1531.7 522.2 1521.9 478.4 1564.7 491.9 1588.2 536.7C1589 538.2 1590.7 538.8 1592.2 538 1593.7 537.2 1594.3 535.4 1593.5 533.9L1573.4 494.6 1594.2 501.1 1603 517.8C1603.8 519.3 1605.5 519.9 1607 519.1S1609.1 516.6 1608.3 515L1602.3 503.6 1617.4 508.3C1619.1 508.9 1620.6 508.1 1621.2 506.4 1621.7 504.6 1620.9 503.1 1619.2 502.6L1604.1 497.8 1615.5 491.9C1616.3 491.5 1617.1 491.1 1617.4 489.9S1617.4 488 1617 487.2C1616.2 485.7 1614.5 485.2 1612.9 486L1596.2 494.7 1575.4 488.2 1614.9 467.5C1615.7 467.1 1616.4 466.7 1616.8 465.6 1617 465 1616.8 463.6 1616.4 462.9 1615.6 461.4 1613.8 460.8 1612.3 461.6L1567.5 485.1 1524.6 471.7 1557.6 441.3 1607.9 443.1C1609.3 442.9 1610.8 442.1 1611.2 440.9 1611.2 440.9 1611.3 440.3 1611.3 440.3 1611.3 438.4 1609.7 437.3 1608.6 436.9L1564.6 435.2 1580.7 420.6 1600.1 421.5C1601.4 421.3 1602.9 420.5 1603.3 419.4 1603.3 419.4 1603.5 418.8 1603.5 418.8 1603.4 416.9 1601.9 415.8 1600.7 415.4L1587.5 415.1 1599.2 404.1C1599.3 403.5 1600.1 403.1 1600.3 402.5 1600.6 401.4 1600.4 400.1 1599.4 399.1 1597.9 398 1596.2 397.4 1595 399L1583.3 410 1583.7 396.7C1583.6 394.8 1582.1 393.7 1580.9 393.3 1579 393.3 1577.9 394.9 1577.5 396.1L1576.5 415.5 1560.5 430.1 1562.2 386.2C1562.1 384.3 1560.6 383.1 1559.4 382.8 1557.1 384 1555.4 385.3 1555.5 387.3Z" fill="rgba(37, 169, 227, 1)"></path><path d="M1266.8 538.8L1220.5 505.1 1217.6 489.5 1245 467.2 1260.2 472.6 1283.5 525.2C1283.9 525.8 1283.9 525.8 1284.4 526.3 1285.2 527.4 1286.7 528 1288.7 527.2 1290.3 525.9 1290.9 524.5 1290.2 522.5L1269.7 476.5 1292.9 485.3 1302.2 505.4C1302.2 505.4 1302.7 506 1302.7 506 1303.5 507.1 1305 507.7 1307 506.9 1308.5 506.6 1309.3 504.2 1308.5 502.1L1302.9 488.8 1320 495.4C1321.4 496 1323.5 495.3 1324.6 493.4S1324 489.4 1322.2 488.2L1305.6 482.1 1318.5 476C1320.5 475.3 1321.3 472.9 1320.5 470.8 1319.6 469.8 1317.8 468.6 1315.7 469.4L1295.6 478.7 1271.9 469.4 1317.8 448.9C1319.8 448.1 1320.6 445.7 1320.2 444.2 1318.9 442.6 1317.1 441.4 1315 442.2L1262.8 466 1247.2 460 1241.7 425.9 1254.6 415.4 1311.8 420.7C1313.7 420.9 1315.3 419.5 1315.5 417.6S1314.4 414 1312.4 413.8L1262.1 409.3 1282 393 1303.5 395.2C1305.4 395.4 1307 394.1 1307.8 391.7S1306.7 388.1 1304.7 387.9L1289.5 386.9 1304 375.1C1305.6 373.7 1305.4 371.2 1304.1 369.6 1302.8 368 1300.8 367.8 1299.2 369.1L1284.7 381 1286.2 366.4C1286.9 364 1285.6 362.4 1283.1 362.6 1281.2 362.4 1279.5 363.7 1279.3 365.7L1277.2 387.1 1257.3 403.4 1262.9 353.2C1263.1 351.2 1261.3 349.1 1259.4 348.9S1255.8 350 1255.6 351.9L1249.8 409.5 1236.9 420 1204.2 407.4 1201.9 391.4 1235.6 345C1236.8 343.2 1236 341.1 1234.7 339.5 1232.8 338.3 1230.8 339.1 1229.2 340.4L1199.9 381.3 1196 356.8 1209.1 338.9C1210.3 337 1209.5 335 1208.2 333.4 1206.8 332.7 1204.3 333 1203.1 334.8L1194.6 346.3 1191.5 328.2C1191.1 326.7 1189.3 325.6 1187.3 325.4 1185.3 326.1 1184.1 328 1184.4 329.5L1187.6 347.6 1175.1 338.9C1173.7 338.3 1171.2 338.5 1170.6 339.9 1169 341.3 1169.3 342.8 1170.6 344.4 1170.6 344.4 1171.1 344.9 1171.1 344.9L1189 358 1192.9 382.6 1152 353.3C1150.1 352.2 1148.2 352 1147 353.8 1145.8 355.7 1146.2 357.2 1147.1 358.3 1147.5 358.8 1147.5 358.8 1147.5 358.8L1194.8 392.6 1197.2 408.6 1169.8 431 1155.1 425.1 1130.8 372.4C1130.5 370.9 1128.1 370.2 1126.6 370.5 1124.6 371.3 1123.8 373.7 1124.6 375.7L1145.1 421.6 1121.8 412.9 1112.5 392.7C1111.8 390.7 1109.9 389.5 1108.3 390.8 1106.3 391.6 1105.5 394 1105.9 395.5L1112.4 409 1095.3 402.3C1093.4 402.1 1091.3 402.9 1090.1 404.8 1090 405.7 1090.4 407.2 1091.3 408.3 1091.7 408.9 1091.7 408.9 1092.7 409L1109.7 415.6 1096.3 422.1C1094.2 422.9 1094 424.9 1094.4 426.4 1094.8 426.9 1094.8 426.9 1095.2 427.4 1096.1 428.5 1097.5 429.2 1099.1 428.8L1119.2 419.5 1142.5 428.3 1096.6 448.8C1094.9 450.1 1093.8 451.9 1095.1 453.5 1095 454.5 1095 454.5 1095.4 455.1 1096.3 456.1 1098.3 456.3 1099.8 456L1152.5 431.7 1167.1 437.6 1173 472.2 1160.7 482.3 1103.1 476.5C1101.2 476.3 1099 478.1 1098.8 480S1100.4 484.1 1102.3 484.3L1152.6 488.9 1133.3 504.7 1111.3 503C1109.3 502.8 1107.7 504.1 1107.5 506 1107.3 508 1108.7 509.6 1110.6 509.8L1125.2 511.3 1110.7 523.1C1109.7 524 1108.9 526.4 1110.3 528 1111.6 529.6 1114.5 529.9 1115.6 529L1130.1 517.2 1128.6 531.8C1128.5 532.8 1128.4 533.8 1128.8 534.3 1129.7 535.4 1130.7 535.5 1131.7 535.6 1133.6 535.8 1135.2 534.5 1135.4 532.5L1138.1 510.6 1157.4 494.8 1151.9 545C1151.8 546 1152.2 546.5 1153.1 547.6 1153.6 548.1 1154 548.7 1155 548.8 1156.9 549 1159.1 547.2 1159.3 545.3L1165.5 488.2 1177.9 478.1 1210.1 490.3 1213.4 506.4 1179.2 553.2C1178.5 554.6 1178.3 556.5 1179.2 557.6 1179.7 558.1 1179.7 558.1 1180.2 557.7 1181.5 559.3 1184 559.1 1185.2 557.2L1214.4 516.3 1218.8 541.4 1205.7 559.3C1205 560.7 1205.4 562.2 1206.2 563.3 1206.2 563.3 1206.7 563.8 1206.7 563.8 1208 565.4 1210.5 565.2 1211.6 563.3L1220.3 550.9 1223.4 569C1223.3 569.9 1223.7 570.5 1224.2 571 1225.1 572.1 1226.5 572.7 1227 572.3 1229.5 572 1230.7 570.2 1230.9 568.2L1227.8 550.2 1239.2 558.7C1241.1 559.9 1243.6 559.7 1244.7 557.8 1245.4 556.4 1245.1 553.9 1243.7 553.3L1225.8 540.1 1221.9 515.6 1262.8 544.8C1264.6 546 1266.7 545.2 1268.3 543.9 1268.9 542.5 1268.7 540 1266.8 538.8ZM1236.9 463.9L1216 481 1212.8 483.6 1209 482.3 1184.3 472.9 1180.1 471 1179.5 467 1175.2 440.9 1174.6 436.9 1177.8 434.3 1198.8 417.2 1202 414.5 1205.8 415.9 1230.5 425.3 1234.3 426.7 1235.3 431.2 1239.6 457.3 1240.2 461.3 1236.9 463.9Z" fill="rgba(37, 169, 227, 1)"></path><path d="M377 531.7L385.2 524.5 386.9 531.6C387 532.3 387.9 533 389 533 389.9 532.5 390.5 531.6 390.4 530.9L388.3 521.5 396 514.8 400 534C400.3 535.2 401.2 535.8 402.1 535.4 403.2 535.4 403.8 534.5 403.5 533.3L399 512.2 405.7 506 425.9 512.5 427.7 520.3 410.4 535.5C410.3 535.8 410.2 536.2 410.1 536.5 410 536.8 410.1 537.6 410.3 538 411.1 539 412.2 539 412.8 538.1L428.6 524.3 430.6 534 422.7 541.3C422.4 541.2 422.3 541.5 422.2 541.9 422 542.5 422.1 543.3 422.7 543.8 423.2 544.4 424.3 544.4 425.2 543.9L431.5 538 434.1 550.1C434.2 550.9 435.1 551.5 436.2 551.5 437.1 551.1 437.7 550.2 437.6 549.4L435.1 538 442 540.3C443 540.6 444 539.8 444.2 539.2 444.5 538.2 444.2 537 443.2 536.6L434.3 533.8 432.3 524 450.8 530C451.8 530.3 452.7 529.9 453 528.9 453.3 527.9 452.9 527 451.9 526.7L431.4 520.1 429.4 511.8 445.2 497.6 452.8 500 457.5 521.6C457.5 522.7 458.7 523.4 459.6 523 460.7 523 461 522 461 520.9L456.8 501.3 466.4 504.4 468.3 514.1C468.4 514.9 469.6 515.7 470.4 515.6S471.9 514.2 471.9 513.1L470.3 505.7 481.9 509.4C482.8 509.7 483.8 509 484.1 508 484.4 507.3 484 506.1 483 505.8L471.5 502.1 477.2 496.6C477.8 496.1 478.1 495.1 477.3 494.1 476.8 493.6 475.4 493.5 474.8 494L467.5 500.8 458 497.7 472.9 484.3C473.5 483.4 473.8 482.4 473 481.4 472.5 480.9 471.1 480.8 470.5 481.3L454 496.4 446.4 494 441.8 473.2 448.4 467.6 468.8 474.2C469.8 474.6 470.7 474.1 471 473.1 471.3 472.1 471 470.9 470 470.6L451.5 464.6 458.8 457.9 467.7 460.8C468.7 461.1 469.6 460.6 469.9 459.6 470.2 458.7 469.8 457.8 468.8 457.5L461.8 455.2 470.5 447.5C471.1 446.9 471.2 445.5 470.6 445 469.7 444.3 468.8 444 468.1 444.9L459 452.8 457.2 444.6C456.8 443.8 455.9 443.1 455.2 443.2 454.4 443.3 453.8 443.9 453.6 444.6 453.6 444.6 453.5 444.9 453.7 445.3L455.8 455.8 448.5 462.6 443.8 442.1C443.8 441 443 440.4 441.8 440.7 441.3 440.9 440.9 441.2 440.7 441.8 440.6 442.2 440.5 442.5 440.3 442.8L445.5 465.2 439.4 470.6 419.3 464.1 417.4 455.1 433.4 440.6C434.4 439.8 434.4 438.7 433.5 438.1 433.1 437.2 432 437.2 431 438L416.5 451.2 414.2 441.3 421.4 434.9C422 434.3 421.9 433.2 421.5 432.4 420.6 431.7 419.6 431.4 419 432.3L413.4 437 411 426.4C411 425.3 410 425 408.9 425 408.5 425.2 408 425.8 407.7 426.5 407.7 426.5 407.6 426.8 407.5 427.1L410 438.5 401.8 435.8C401.1 435.6 399.9 436 399.6 437 399.3 437.9 400.1 438.9 400.7 439.1L411 442.4 413.2 452.3 393.1 445.8C392.1 445.5 391.2 446.2 390.8 447.2S391 449.1 392 449.4L414.1 456.6 415.8 464.8 399.9 478.9 391.3 476.2 386.7 454.3C386.3 453.4 385.4 452.8 384.3 452.8 383.9 453 383.3 453.6 383.1 454.2 383 454.5 382.9 454.9 383.1 455.3L387.4 474.9 377.8 471.8 375.5 462C375.4 461.2 374.5 460.5 373.4 460.5 372.5 461 371.9 461.9 372 462.6L373.8 470.5 363.3 467.1C362.6 466.9 361.3 467.6 361.1 468.2 360.8 469.2 361.5 470.5 362.1 470.7L372.7 474.2 366.7 479.1C366.6 479.5 366.5 479.8 366.4 480.1 366.2 480.8 366.3 481.6 366.5 482 367.4 482.6 368.5 482.6 369.3 482.2L376.6 475.4 386.2 478.5 371.3 491.9C370.3 492.7 370.3 493.8 370.9 494.3 371.7 495.3 372.8 495.3 373.6 494.9L390.2 479.8 398.7 482.6 403.3 503.4 397.1 509 375 501.9C374 501.5 373.1 502 372.8 503 372.5 504 373 504.8 373.9 505.2L394.1 511.7 386.5 518.3 376.2 515C375.6 514.8 374.3 515.5 373.9 516.5 373.6 517.4 374.4 518.4 375.1 518.6L383.3 521.3 374.6 529.1C374.5 529.4 374.5 529.4 374.4 529.7 374.2 530.4 374.3 531.1 374.5 531.6 375.4 532.2 376.5 532.2 377 531.7ZM402.7 483.8L402.3 481.5 403.9 480.2 416.7 468.7 418.2 467.4 420.2 468 436.4 473.2 438.3 473.9 438.8 475.8 442.5 492.7 442.9 494.7 441.3 496.3 428.6 507.5 426.9 509.2 425 508.5 408.8 503.3 406.8 502.7 406.5 500.4 402.7 483.8Z" fill="rgba(37, 169, 227, 1)"></path><path d="M1320.5 187.6L1330.5 176.2 1333.8 184.7C1334.1 185.6 1335.3 186.3 1336.7 186.1 1337.7 185.4 1338.3 184.2 1337.6 183.1L1333.8 172.4 1341.1 163.1 1349.1 185.6C1349.8 186.6 1351 187.3 1351.9 187 1353.3 186.4 1354 185.1 1353.3 184.1L1344.5 159.3 1356.1 145.5 1360.9 165.7 1372.3 148.3 1378.6 165.3 1361.8 185.6C1361.4 185.6 1361.3 186 1361.2 186.4 1361.1 187.3 1361.4 188.2 1362.1 188.8 1362.9 189.4 1364.3 189.2 1365.3 188.5L1380.4 170 1384.1 181.2 1376.9 190.1C1376.4 190.4 1376.3 190.8 1376.2 191.3 1376.1 191.7 1376.4 192.6 1377.2 193.2 1378 193.8 1379.3 193.6 1379.9 192.8L1386 185.9 1391.4 200.1C1391.6 201.5 1392.9 201.7 1394.2 201.5 1395.1 201.2 1395.8 200 1395.2 198.6L1390.2 184.5 1399.1 186.1C1400.4 186.3 1401.5 185.2 1401.6 184.3 1401.9 183 1401.2 182 1399.9 181.8L1388.4 179.8 1384.6 168.5 1407.7 172.6C1408.9 172.8 1409.9 172.1 1410.2 170.8 1410.3 170 1409.7 168.6 1408.4 168.3L1382.8 163.8 1376.6 146.9 1396.2 152.6 1387.1 134.2 1405.1 137.4 1414 161.8C1414.6 163.3 1415.9 163.5 1416.8 163.2 1417.7 162.9 1418.4 161.7 1418.2 160.4L1409.8 138.2 1421.3 140.2 1425.5 151.1C1425.7 152.5 1426.9 153.1 1428.4 152.5 1429.3 152.2 1429.9 151 1429.3 149.6L1426.4 141.1 1441.3 143.8C1442.6 144 1443.6 143.3 1443.9 142S1443.4 139.7 1442.1 139.5L1427.2 136.9 1432.8 130C1433.9 128.8 1433.7 127.5 1432.9 126.9 1431.7 125.8 1430.4 126 1429.7 127.2L1422 136 1410.5 133.9 1426 116C1426.6 114.8 1426.4 113.4 1425.7 112.9 1424.5 111.8 1423.2 112 1422.5 113.2L1405.8 133.1 1387.9 130 1402.7 115.9 1382.3 114.5 1393.9 100.7 1419.5 105.2C1420.8 105.4 1421.9 104.3 1422 103.4 1422.3 102.1 1421.6 101.1 1420.3 100.9L1396.8 96.8 1404.6 87.6 1416.1 89.6C1417.4 89.8 1418.4 89.1 1418.6 87.9 1418.8 87 1418.2 85.6 1416.9 85.3L1407.9 83.8 1417.4 72.2C1418.5 71.1 1418.3 69.8 1417.1 69.1 1416.3 68.5 1415 68.3 1414.4 69.5L1404.4 81 1401.1 72.5C1400.8 71.5 1399.6 70.9 1398.7 71.1 1397.8 71.4 1397.2 72.2 1397.1 72.6 1397 73.1 1397 73.5 1397.3 74L1401.1 84.8 1393.8 94 1385.9 71.5C1385.2 70.5 1384 69.9 1383 70.1 1382.1 70.4 1381.5 71.2 1381.4 72.1 1381.3 72.5 1381.3 72.5 1381.7 73L1390.5 97.9 1378.8 111.6 1374 91.4 1362.6 108.8 1356.3 91.8 1373.1 71.5C1373.7 70.7 1373.9 69.4 1372.8 68.3 1372 67.8 1370.7 68 1369.7 68.7L1354.5 87.1 1350.8 75.9 1358.1 67.1C1359.1 66.4 1358.9 65 1357.7 63.9 1356.9 63.4 1355.6 63.6 1354.6 64.3L1349 71.2 1343.5 57C1343.3 55.7 1342.1 55.4 1340.7 55.7 1340.2 56 1339.6 56.8 1339.5 57.2 1339.5 57.6 1339.4 58.1 1339.8 58.6L1344.8 72.6 1335.8 71.1C1334.5 70.8 1333.4 72 1333.3 72.8L1333.3 72.8C1333.1 74.1 1333.8 75.1 1335 75.3L1346.6 77.4 1350.3 88.6 1327.3 84.5C1326 84.3 1325 85 1324.7 86.3S1325.2 88.6 1326.5 88.8L1352.1 93.3 1358.4 110.2 1338.7 104.6 1347.8 122.9 1329.9 119.7 1321 95.3C1320.3 93.9 1319.1 93.6 1318.1 93.9 1317.2 94.2 1316.5 95.4 1316.7 96.8L1324.7 118.8 1313.6 116.9 1309.4 106C1309.2 104.7 1308 104 1306.6 104.6 1305.6 104.9 1305 106.1 1305.2 107.5L1308.5 116 1293.6 113.4C1292.3 113.1 1291.3 113.8 1291.1 115.1S1291.5 117.4 1292.8 117.6L1307.8 120.2 1302.1 127.2C1301.6 127.5 1301.6 128 1301.5 128.4 1301.3 129.2 1301.7 129.7 1302 130.2 1303.2 131.3 1304.5 131.1 1305.2 129.9L1312.9 121.2 1324.4 123.2 1308.9 141.1C1308.9 141.6 1308.8 142 1308.7 142.4 1308.5 143.3 1308.9 143.8 1309.3 144.3 1310.4 145.4 1311.7 145.1 1312.4 143.9L1329.1 124 1347 127.2 1332.2 141.3 1352.7 142.7 1341 156.5 1315.4 152C1314.1 151.7 1313 152.9 1312.9 153.7 1312.6 155 1313.3 156 1314.6 156.2L1337.7 160.3 1330.3 169.5 1318.8 167.5C1317.5 167.3 1316.5 168 1316.3 169.3S1316.8 171.6 1318 171.8L1327 173.4 1317.5 184.9C1317 185.2 1316.9 185.7 1316.8 186.1 1316.8 186.5 1317 187.4 1317.8 188 1318.6 188.6 1319.9 188.8 1320.5 187.6ZM1342.1 137.7L1354.2 126.2 1346.7 111.3 1363.1 115.9 1372.1 102.1 1376.3 118.2 1392.8 119.4 1380.7 130.9 1388.2 145.9 1372.3 141.3 1362.8 155 1359 139 1342.1 137.7Z" fill="rgba(37, 169, 227, 1)"></path><path d="M117.8 523.1L118.6 494.3 137.3 476.8 143.1 501.7 127.8 526.1C127.8 526.1 127.7 526.4 127.7 526.4 127.5 527.1 128 527.9 128.5 528.5 129.4 529.1 130.6 528.7 130.9 527.7L144.2 506.4 147.1 518.5 141.3 528C141.3 528 141.2 528.3 141.2 528.3 141 529 141.5 529.8 142.1 530.4 143 531 144.2 530.6 144.5 529.6L148.6 523.3 150.6 532.2C150.7 533 151.9 533.7 152.7 533.6 153.8 533.5 154.2 532.2 154.1 531.5L152 522.5 158.4 526.6C159.3 527.2 160.5 526.9 160.8 525.9 161.4 525 161.1 523.8 160.1 523.5L150.6 517.7 148.1 505.7 169.4 519.1C170.3 519.7 171.5 519.3 171.8 518.3 172.4 517.4 172 516.2 171.1 515.9L146.7 500.6 140.8 475.7 165.7 483.2 179.4 508.7C179.9 509.6 180.9 509.9 181.7 509.4 182.6 508.9 182.9 507.9 182.4 507.1L170.4 484.6 182.3 488.2 187.4 497.7C187.9 498.6 188.9 498.9 189.7 498.4 190.6 498 190.9 497 190.4 496.1L187 489.6 196.3 492.4C197.2 493 198.1 492.3 198.4 491.3 198.7 490.3 198.3 489.4 197.3 489.1L188.6 486.5 195.1 483C196 482.6 196.3 481.6 195.8 480.7S194.4 479.5 193.5 480L184 485.1 172 481.5 194.5 469.4C195.4 469 195.7 468 195.2 467.1 194.7 466.2 193.8 465.9 192.9 466.4L167.4 480.1 142.8 472.7 161.5 455.1 189.5 456C190.6 455.9 191.2 455.1 191.5 454.1 191.5 453 190.6 452.3 189.6 452L164.5 451.3 173.6 442.8 184.7 443.3C185.8 443.3 186.4 442.4 186.7 441.4 186.7 440.3 185.8 439.6 185.1 439.4L177.5 439.3 184.1 433C184.7 432.4 185.1 431.1 184.2 430.5 183.3 429.8 182.3 429.5 181.7 430.4L175 436.8 175.2 429.2C175.1 428.1 174.2 427.5 173.6 427.3 172.8 427.4 171.9 427.9 171.7 428.5 171.7 428.5 171.6 428.9 171.6 428.9L171.2 439.9 162.1 448.4 162.8 423.3C162.8 422.2 161.9 421.6 161.2 421.4 160.5 421.5 159.6 422 159.4 422.6 159.4 422.6 159.3 423 159.3 423L158.6 451.7 139.9 469.2 134 444.3 149.3 419.9C150 419.1 149.6 417.9 148.6 417.6 147.7 416.9 146.5 417.3 146.2 418.3L132.9 439.6 130 427.5 135.8 418C136.4 417.1 136.1 415.9 135.1 415.6 134.2 415 133 415.4 132.7 416.4L128.6 422.7 126.6 413.8C126.4 413 125.2 412.3 124.4 412.4 123.7 412.6 123.2 413.1 123 413.8 122.9 414.1 122.8 414.5 123 414.9L125 423.8 118.6 419.7C117.7 419.1 116.5 419.5 116.2 420.5 116.2 420.5 116.1 420.8 116.1 420.8 115.9 421.4 116.4 422.3 117 422.8L126.4 428.6 129.3 440.7 108 427.4C107.1 426.7 105.9 427.1 105.6 428.1 105.6 428.1 105.5 428.4 105.5 428.4 105.3 429.1 105.8 430 106.3 430.5L130.7 445.8 136.5 470.8 112 463.3 98.3 437.9C97.8 437 96.8 436.7 96 437.2 95.1 437.6 94.8 438.6 95.3 439.5L107 461.8 95 458.2 90 448.7C89.5 447.9 88.5 447.6 87.6 448S86.5 449.5 86.9 450.4L90.4 456.8 81.8 454.2C80.8 453.9 79.9 454.4 79.6 455.4 79.3 456.4 79.8 457.2 80.8 457.5L89.4 460.2 82.9 463.6C82.5 463.9 82.1 464.1 81.9 464.8S81.9 465.9 82.1 466.3C82.6 467.1 83.6 467.4 84.4 467L93.9 461.9 105.9 465.5 83.4 477.5C83 477.8 82.6 478 82.4 478.7 82.3 479 82.4 479.8 82.6 480.2 83.1 481.1 84.1 481.4 84.9 480.9L110.4 467.2 135 474.6 116.3 492.2 87.6 491.5C86.8 491.6 85.9 492.1 85.7 492.7 85.7 492.7 85.6 493.1 85.6 493.1 85.7 494.1 86.5 494.8 87.2 495L112.3 495.7 103.3 504.2 92.2 503.7C91.4 503.9 90.6 504.3 90.4 505 90.4 505 90.2 505.3 90.2 505.3 90.3 506.4 91.2 507 91.8 507.2L99.4 507.4 92.8 513.7C92.7 514 92.3 514.2 92.2 514.6 92 515.2 92.1 516 92.7 516.5 93.5 517.2 94.5 517.5 95.2 516.6L101.8 510.2 101.7 517.8C101.7 518.9 102.6 519.5 103.3 519.7 104.4 519.7 105 518.8 105.2 518.2L105.7 507.1 114.7 498.6 114 523.7C114.1 524.8 115 525.4 115.6 525.6 116.9 525 117.9 524.2 117.8 523.1Z" fill="rgba(37, 169, 227, 1)"></path></g><defs><mask id="SvgjsMask1072"><rect width="1560" height="600" fill="#ffffff"></rect></mask><filter id="SvgjsFilter1073"><feGaussianBlur stdDeviation="1"></feGaussianBlur></filter></defs></svg>